<svg width="135" height="131" viewBox="0 0 135 131" fill="none" xmlns="http://www.w3.org/2000/svg">
<path d="M121.906 91.631C122.668 90.2646 124.334 89.6345 125.829 90.2172C127.467 90.8553 128.279 92.7063 127.644 94.3513L127.558 94.5739L127.44 94.7811C127.196 95.2102 126.916 95.6994 126.33 96.4826C125.684 97.3462 124.796 98.3799 121.373 101.629C117.94 104.889 111.929 110.406 105.841 115.033C99.7419 119.668 93.7789 123.276 89.4749 125.512C85.2379 127.712 82.4539 128.837 79.3469 129.263C74.2869 129.957 70.0129 130.317 66.6849 129.634C62.9229 128.861 58.5789 127.795 54.2349 126.652C52.5359 126.205 51.5199 124.458 51.9649 122.752C52.4099 121.045 54.1479 120.023 55.8469 120.47C60.1399 121.6 64.3579 122.634 67.9589 123.373C70.0849 123.81 73.3399 123.638 78.4859 122.932C80.4909 122.657 82.4919 121.945 86.5539 119.835C90.5499 117.76 96.2049 114.344 102.004 109.937C107.814 105.521 113.627 100.192 117.005 96.9849C120.393 93.7687 120.945 93.0462 121.246 92.6436C121.439 92.3855 121.561 92.2042 121.65 92.0645C121.738 91.9262 121.806 91.8074 121.906 91.631Z" fill="white" stroke="white" stroke-width="2" stroke-linecap="round"/>
<path d="M9.08798 6.00006C9.83498 6.00006 10.428 6.20725 11.025 6.42403C11.707 6.67164 12.901 7.14045 15.089 8.03157C19.486 9.82242 28.083 13.3989 36.917 17.074C38.553 17.7542 39.302 19.5747 38.592 21.1402C37.881 22.7058 35.98 23.4235 34.345 22.7433C25.496 19.0624 16.929 15.4989 12.562 13.7199C10.367 12.8261 9.28199 12.4023 8.73499 12.2037C8.65799 12.1755 8.59799 12.1545 8.55299 12.1389C7.02499 11.8946 5.85999 10.6231 5.85999 9.09078C5.85999 7.38382 7.30498 6.00006 9.08798 6.00006Z" fill="white" stroke="white" stroke-width="2" stroke-linecap="round"/>
<path d="M130.272 1.03188C131.99 0.787708 133.583 1.97541 133.828 3.68451C134.073 5.39358 132.88 6.97705 131.161 7.22121C130.962 7.24951 130.803 7.23964 120.138 9.92941C109.623 12.5814 89.541 17.6893 78.691 20.3039C73.286 21.6065 69.891 22.365 67.868 22.7221C66.92 22.8893 66.026 23.0161 65.321 22.9985C65.122 22.9935 64.852 22.976 64.552 22.915C64.285 22.8606 63.772 22.729 63.248 22.3627C62.639 21.9376 62.04 21.2008 61.893 20.1714C61.763 19.2684 62.047 18.5664 62.221 18.2246L62.323 18.0249C63.398 15.957 64.924 13.7255 66.178 11.9813C66.835 11.0669 67.446 10.2469 67.904 9.62942C68.441 8.90475 68.616 8.65378 68.615 8.65661C69.474 7.15686 71.394 6.63428 72.902 7.48945C74.41 8.34464 74.935 10.2538 74.075 11.7536C73.843 12.1594 73.353 12.8146 72.964 13.3394C72.495 13.9727 71.916 14.7488 71.292 15.6171L71.29 15.6196C72.885 15.2582 74.836 14.8 77.211 14.2277C88.018 11.6235 108.043 6.52976 118.593 3.8691C128.992 1.24636 129.64 1.12168 130.272 1.03188Z" fill="white" stroke="white" stroke-width="2" stroke-linecap="round"/>
<path d="M0 69.1419C0 66.4255 0.165002 63.5445 0.496002 60.4989C0.908002 57.4532 1.527 54.4899 2.352 51.6089C3.26 48.6456 4.373 45.8469 5.694 43.2128C7.096 40.4964 8.746 38.1505 10.644 36.1749C12.624 34.1171 14.893 32.5119 17.451 31.3595C20.092 30.1248 23.062 29.5074 26.362 29.5074C29.25 29.5074 31.808 30.3306 34.036 31.9769C36.263 33.5409 38.202 35.6399 39.853 38.2739C41.503 40.8257 42.864 43.7479 43.937 47.0404C45.009 50.333 45.876 53.6668 46.536 57.0417C47.278 60.3342 47.774 63.5445 48.021 66.6725C48.269 69.7181 48.392 72.3522 48.392 74.5747C48.062 79.4312 47.361 83.9174 46.288 88.0331C45.216 92.0665 43.731 95.6472 41.833 98.7752C40.018 101.821 37.749 104.331 35.026 106.307C32.303 108.282 29.003 109.599 25.125 110.258C21.412 110.258 18.235 109.599 15.595 108.282C12.954 106.965 10.685 105.237 8.788 103.097C6.89 100.956 5.364 98.4871 4.208 95.6884C3.053 92.8897 2.146 89.9675 1.486 86.9219C0.908 83.8762 0.496001 80.8306 0.248001 77.7849C0.0830011 74.657 0 71.776 0 69.1419ZM4.703 69.1419C4.703 71.1175 4.745 73.34 4.827 75.8094C4.91 78.2788 5.116 80.7894 5.446 83.3412C5.859 85.8106 6.436 88.2801 7.179 90.7495C7.921 93.1366 8.911 95.2768 10.149 97.17C11.469 98.9809 13.078 100.463 14.976 101.615C16.956 102.767 19.308 103.344 22.031 103.344C25.991 103.59 29.25 103.097 31.808 101.862C34.366 100.627 36.428 98.734 37.996 96.1823C39.564 93.6305 40.76 90.5437 41.585 86.9219C42.41 83.3 43.07 79.1843 43.566 74.5747C43.566 72.7638 43.483 70.5001 43.318 67.7837C43.153 65.0673 42.823 62.2275 42.328 59.2642C41.915 56.3008 41.297 53.3375 40.471 50.3742C39.729 47.3285 38.697 44.6122 37.377 42.225C36.14 39.7556 34.613 37.7801 32.798 36.2984C31.065 34.8167 28.961 34.0759 26.486 34.0759C23.928 34.0759 21.618 34.6933 19.555 35.928C17.492 37.0804 15.636 38.6444 13.986 40.6199C12.418 42.5131 11.015 44.6945 9.778 47.1639C8.623 49.6334 7.674 52.1851 6.931 54.8192C6.189 57.3709 5.611 59.9227 5.199 62.4744C4.869 64.9439 4.703 67.1664 4.703 69.1419Z" fill="white"/>
<path d="M54.704 69.1419C54.704 66.4255 54.869 63.5445 55.199 60.4989C55.612 57.4532 56.231 54.4899 57.056 51.6089C57.963 48.6456 59.077 45.8469 60.397 43.2128C61.8 40.4964 63.45 38.1505 65.348 36.1749C67.328 34.1171 69.597 32.5119 72.155 31.3595C74.795 30.1248 77.766 29.5074 81.066 29.5074C83.954 29.5074 86.512 30.3306 88.74 31.9769C90.967 33.5409 92.906 35.6399 94.556 38.2739C96.207 40.8257 97.568 43.7479 98.641 47.0404C99.713 50.333 100.58 53.6668 101.24 57.0417C101.982 60.3342 102.477 63.5445 102.725 66.6725C102.972 69.7181 103.096 72.3522 103.096 74.5747C102.766 79.4312 102.065 83.9174 100.992 88.0331C99.92 92.0665 98.434 95.6472 96.537 98.7752C94.721 101.821 92.452 104.331 89.73 106.307C87.007 108.282 83.706 109.599 79.828 110.258C76.116 110.258 72.939 109.599 70.299 108.282C67.658 106.965 65.389 105.237 63.492 103.097C61.594 100.956 60.067 98.4871 58.912 95.6884C57.757 92.8897 56.85 89.9675 56.189 86.9219C55.612 83.8762 55.199 80.8306 54.952 77.7849C54.787 74.657 54.704 71.776 54.704 69.1419ZM59.407 69.1419C59.407 71.1175 59.449 73.34 59.531 75.8094C59.614 78.2788 59.82 80.7894 60.15 83.3412C60.562 85.8106 61.14 88.2801 61.883 90.7495C62.625 93.1366 63.615 95.2768 64.853 97.17C66.173 98.9809 67.782 100.463 69.68 101.615C71.66 102.767 74.012 103.344 76.734 103.344C80.695 103.59 83.954 103.097 86.512 101.862C89.07 100.627 91.132 98.734 92.7 96.1823C94.268 93.6305 95.464 90.5437 96.289 86.9219C97.114 83.3 97.774 79.1843 98.269 74.5747C98.269 72.7638 98.187 70.5001 98.022 67.7837C97.857 65.0673 97.527 62.2275 97.032 59.2642C96.619 56.3008 96 53.3375 95.175 50.3742C94.433 47.3285 93.401 44.6122 92.081 42.225C90.844 39.7556 89.317 37.7801 87.502 36.2984C85.769 34.8167 83.665 34.0759 81.19 34.0759C78.632 34.0759 76.322 34.6933 74.259 35.928C72.196 37.0804 70.34 38.6444 68.69 40.6199C67.122 42.5131 65.719 44.6945 64.482 47.1639C63.327 49.6334 62.378 52.1851 61.635 54.8192C60.893 57.3709 60.315 59.9227 59.902 62.4744C59.572 64.9439 59.407 67.1664 59.407 69.1419Z" fill="white"/>
<path d="M44.3439 60.614C44.3439 69.9245 40.3729 77.472 35.4729 77.472C30.5729 77.472 26.6019 69.9245 26.6019 60.614C26.6019 51.3036 30.5729 43.756 35.4729 43.756C40.3729 43.756 44.3439 51.3036 44.3439 60.614Z" fill="white"/>
<path d="M98.23 56.019C100.168 65.4832 97.662 73.9862 92.633 75.011C87.604 76.0358 81.956 69.1943 80.019 59.7302C78.081 50.266 80.587 41.763 85.616 40.7382C90.645 39.7134 96.293 46.5549 98.23 56.019Z" fill="white"/>
</svg>
