<svg width="603" height="131" viewBox="0 0 603 131" fill="none" xmlns="http://www.w3.org/2000/svg">
<path d="M234.046 91.6309C234.808 90.2645 236.474 89.6344 237.969 90.2171C239.607 90.8552 240.419 92.7062 239.784 94.3512L239.698 94.5738L239.58 94.781C239.336 95.2101 239.056 95.6993 238.47 96.4825C237.824 97.3461 236.936 98.3798 233.513 101.629C230.08 104.889 224.069 110.406 217.981 115.033C211.882 119.668 205.919 123.276 201.615 125.512C197.378 127.712 194.594 128.837 191.487 129.263C186.427 129.957 182.153 130.317 178.825 129.634C175.063 128.861 170.719 127.795 166.375 126.652C164.676 126.205 163.66 124.458 164.105 122.752C164.55 121.045 166.288 120.023 167.987 120.47C172.28 121.6 176.498 122.634 180.099 123.373C182.225 123.81 185.48 123.638 190.626 122.932C192.631 122.657 194.632 121.945 198.694 119.835C202.69 117.76 208.345 114.344 214.144 109.937C219.954 105.521 225.767 100.192 229.145 96.9848C232.533 93.7686 233.085 93.0461 233.386 92.6435C233.579 92.3854 233.701 92.2041 233.79 92.0644C233.878 91.9261 233.946 91.8073 234.046 91.6309Z" fill="white" stroke="white" stroke-width="2" stroke-linecap="round"/>
<path d="M121.228 6C121.975 6 122.568 6.20719 123.165 6.42397C123.847 6.67158 125.041 7.14039 127.229 8.03151C131.626 9.82236 140.223 13.3988 149.057 17.0739C150.693 17.7541 151.442 19.5746 150.732 21.1401C150.021 22.7057 148.12 23.4234 146.485 22.7432C137.636 19.0623 129.069 15.4988 124.702 13.7198C122.507 12.826 121.422 12.4022 120.875 12.2036C120.798 12.1754 120.738 12.1544 120.693 12.1388C119.165 11.8945 118 10.623 118 9.09072C118 7.38376 119.445 6 121.228 6Z" fill="white" stroke="white" stroke-width="2" stroke-linecap="round"/>
<path d="M242.412 1.03182C244.13 0.78765 245.723 1.97535 245.968 3.68445C246.213 5.39352 245.02 6.97699 243.301 7.22115C243.102 7.24945 242.943 7.23958 232.278 9.92935C221.763 12.5813 201.681 17.6892 190.831 20.3038C185.426 21.6064 182.031 22.3649 180.008 22.722C179.06 22.8892 178.166 23.016 177.461 22.9984C177.262 22.9934 176.992 22.9759 176.692 22.9149C176.425 22.8605 175.912 22.7289 175.388 22.3626C174.779 21.9375 174.18 21.2007 174.033 20.1713C173.903 19.2683 174.187 18.5663 174.361 18.2245L174.463 18.0248C175.538 15.9569 177.064 13.7254 178.318 11.9812C178.975 11.0668 179.586 10.2468 180.044 9.62936C180.581 8.90469 180.756 8.65372 180.755 8.65655C181.614 7.1568 183.534 6.63422 185.042 7.48939C186.55 8.34458 187.075 10.2537 186.215 11.7535C185.983 12.1593 185.493 12.8145 185.104 13.3393C184.635 13.9726 184.056 14.7487 183.432 15.617C183.431 15.6178 183.431 15.6187 183.43 15.6195C185.025 15.2581 186.976 14.7999 189.351 14.2276C200.158 11.6234 220.183 6.5297 230.733 3.86904C241.132 1.2463 241.78 1.12162 242.412 1.03182Z" fill="white" stroke="white" stroke-width="2" stroke-linecap="round"/>
<mask id="path-4-outside-1_10534_66" maskUnits="userSpaceOnUse" x="0" y="19" width="603" height="103" fill="black">
<rect fill="white" y="19" width="603" height="103"/>
<path d="M47.5354 79.2665C44.235 87.5803 40.9759 94.0008 37.758 98.5281C34.5402 103.055 31.4048 106.101 28.3519 107.665C25.2991 109.147 22.4112 109.311 19.6884 108.159C16.9656 107.007 14.4491 104.908 12.1388 101.862C9.91104 98.7339 7.97206 94.824 6.32187 90.132C4.75419 85.4401 3.47529 80.2954 2.48517 74.698C1.57757 69.1007 1.08251 63.2563 1 57.165C1 50.9914 1.49506 44.9413 2.48517 39.0147L7.31199 39.5086C6.40438 50.0448 6.28062 59.2229 6.94069 67.0428C7.68328 74.7804 8.83841 81.2421 10.4061 86.4279C11.9738 91.6137 13.789 95.5648 15.8517 98.2812C17.9145 100.998 19.8947 102.562 21.7924 102.973C24.5977 102.973 27.073 102.232 29.2183 100.751C31.446 99.269 33.385 97.3346 35.0352 94.9474C36.7679 92.5603 38.2118 89.8439 39.367 86.7983C40.6046 83.7527 41.5947 80.6659 42.3373 77.5379C43.0799 74.4099 43.6162 71.4055 43.9463 68.5245C44.2763 65.5611 44.4413 63.0094 44.4413 60.8692C44.4413 58.0705 44.3588 55.6011 44.1938 53.4609C44.0288 51.2384 43.74 49.0571 43.3274 46.9169C42.9974 44.7767 42.5848 42.5954 42.0898 40.3729C41.6772 38.0681 41.1822 35.434 40.6046 32.4707L46.6691 28.0257C48.5668 39.9613 50.1757 50.2095 51.4959 58.7702C52.8985 67.2486 54.0949 74.3688 55.085 80.1308C56.0752 85.8105 56.859 90.379 57.4366 93.8362C58.0141 97.2111 58.4679 99.8863 58.798 101.862C59.2105 103.755 59.4581 105.113 59.5406 105.936C59.7056 106.677 59.7881 107.295 59.7881 107.789H54.7138L47.5354 79.2665Z"/>
<path d="M62.7584 43.0892L64.7387 36.6687C64.8212 36.5864 65.44 36.5041 66.5951 36.4218C67.8328 36.2571 69.4417 36.0925 71.422 35.9279C73.4022 35.6809 75.6299 35.434 78.1052 35.187C80.5805 34.9401 83.0971 34.6932 85.6549 34.4462C88.2952 34.1993 90.853 33.9523 93.3283 33.7054C95.8861 33.4584 98.2376 33.2115 100.383 32.9645C100.383 32.9645 100.754 32.9645 101.497 32.9645C102.239 32.9645 103.064 32.9645 103.972 32.9645C104.88 32.9645 105.746 32.9645 106.571 32.9645C107.396 32.9645 107.932 32.9645 108.18 32.9645C110.16 32.9645 111.522 33.335 112.264 34.0758C113.007 34.8166 113.378 36.4218 113.378 38.8912L90.853 41.4841C90.6879 46.6699 90.7705 52.1027 91.1005 57.7824C91.4305 63.4621 91.8431 69.2241 92.3381 75.0685C92.8332 80.8305 93.287 86.5513 93.6995 92.2311C94.1946 97.9108 94.4421 103.344 94.4421 108.529C94.4421 109.27 94.1946 109.805 93.6995 110.134C93.287 110.381 92.7507 110.546 92.0906 110.628C91.513 110.711 90.8942 110.67 90.2341 110.505C89.5741 110.423 88.9965 110.299 88.5014 110.134C88.2539 109.064 88.0064 107.212 87.7589 104.578C87.5113 101.944 87.2638 98.8574 87.0163 95.3179C86.7687 91.7783 86.5212 87.9507 86.2737 83.835C86.0262 79.7192 85.7786 75.6035 85.5311 71.4878C85.2836 67.372 85.036 63.4621 84.7885 59.7579C84.541 55.9715 84.3347 52.6789 84.1697 49.8802C84.0047 46.9992 83.8396 44.7767 83.6746 43.2127C83.5921 41.6487 83.5096 41.0725 83.4271 41.4841L62.7584 43.0892Z"/>
<path d="M112.14 69.1418C112.14 66.4254 112.305 63.5444 112.636 60.4988C113.048 57.4531 113.667 54.4898 114.492 51.6088C115.4 48.6455 116.513 45.8468 117.834 43.2127C119.236 40.4963 120.886 38.1504 122.784 36.1748C124.764 34.117 127.033 32.5118 129.591 31.3594C132.232 30.1247 135.202 29.5073 138.502 29.5073C141.39 29.5073 143.948 30.3305 146.176 31.9768C148.403 33.5408 150.342 35.6398 151.993 38.2738C153.643 40.8256 155.004 43.7478 156.077 47.0403C157.149 50.3329 158.016 53.6667 158.676 57.0416C159.418 60.3341 159.914 63.5444 160.161 66.6724C160.409 69.718 160.532 72.3521 160.532 74.5746C160.202 79.4311 159.501 83.9173 158.428 88.033C157.356 92.0664 155.871 95.6471 153.973 98.7751C152.158 101.821 149.889 104.331 147.166 106.307C144.443 108.282 141.143 109.599 137.265 110.258C133.552 110.258 130.375 109.599 127.735 108.282C125.094 106.965 122.825 105.237 120.928 103.097C119.03 100.956 117.504 98.487 116.348 95.6883C115.193 92.8896 114.286 89.9674 113.626 86.9218C113.048 83.8761 112.636 80.8305 112.388 77.7848C112.223 74.6569 112.14 71.7759 112.14 69.1418ZM116.843 69.1418C116.843 71.1174 116.885 73.3399 116.967 75.8093C117.05 78.2787 117.256 80.7893 117.586 83.3411C117.999 85.8105 118.576 88.28 119.319 90.7494C120.061 93.1365 121.051 95.2767 122.289 97.1699C123.609 98.9808 125.218 100.463 127.116 101.615C129.096 102.767 131.448 103.344 134.171 103.344C138.131 103.59 141.39 103.097 143.948 101.862C146.506 100.627 148.568 98.7339 150.136 96.1822C151.704 93.6304 152.9 90.5436 153.725 86.9218C154.55 83.2999 155.21 79.1842 155.706 74.5746C155.706 72.7637 155.623 70.5 155.458 67.7836C155.293 65.0672 154.963 62.2274 154.468 59.2641C154.055 56.3007 153.437 53.3374 152.611 50.3741C151.869 47.3284 150.837 44.6121 149.517 42.2249C148.28 39.7555 146.753 37.78 144.938 36.2983C143.205 34.8166 141.101 34.0758 138.626 34.0758C136.068 34.0758 133.758 34.6932 131.695 35.9279C129.632 37.0803 127.776 38.6443 126.126 40.6198C124.558 42.513 123.155 44.6944 121.918 47.1638C120.763 49.6333 119.814 52.185 119.071 54.8191C118.329 57.3708 117.751 59.9226 117.339 62.4743C117.009 64.9438 116.843 67.1663 116.843 69.1418Z"/>
<path d="M166.844 69.1418C166.844 66.4254 167.009 63.5444 167.339 60.4988C167.752 57.4531 168.371 54.4898 169.196 51.6088C170.103 48.6455 171.217 45.8468 172.537 43.2127C173.94 40.4963 175.59 38.1504 177.488 36.1748C179.468 34.117 181.737 32.5118 184.295 31.3594C186.935 30.1247 189.906 29.5073 193.206 29.5073C196.094 29.5073 198.652 30.3305 200.88 31.9768C203.107 33.5408 205.046 35.6398 206.696 38.2738C208.347 40.8256 209.708 43.7478 210.781 47.0403C211.853 50.3329 212.72 53.6667 213.38 57.0416C214.122 60.3341 214.617 63.5444 214.865 66.6724C215.112 69.718 215.236 72.3521 215.236 74.5746C214.906 79.4311 214.205 83.9173 213.132 88.033C212.06 92.0664 210.574 95.6471 208.677 98.7751C206.861 101.821 204.592 104.331 201.87 106.307C199.147 108.282 195.846 109.599 191.968 110.258C188.256 110.258 185.079 109.599 182.439 108.282C179.798 106.965 177.529 105.237 175.632 103.097C173.734 100.956 172.207 98.487 171.052 95.6883C169.897 92.8896 168.99 89.9674 168.329 86.9218C167.752 83.8761 167.339 80.8305 167.092 77.7848C166.927 74.6569 166.844 71.7759 166.844 69.1418ZM171.547 69.1418C171.547 71.1174 171.589 73.3399 171.671 75.8093C171.754 78.2787 171.96 80.7893 172.29 83.3411C172.702 85.8105 173.28 88.28 174.023 90.7494C174.765 93.1365 175.755 95.2767 176.993 97.1699C178.313 98.9808 179.922 100.463 181.82 101.615C183.8 102.767 186.152 103.344 188.874 103.344C192.835 103.59 196.094 103.097 198.652 101.862C201.21 100.627 203.272 98.7339 204.84 96.1822C206.408 93.6304 207.604 90.5436 208.429 86.9218C209.254 83.2999 209.914 79.1842 210.409 74.5746C210.409 72.7637 210.327 70.5 210.162 67.7836C209.997 65.0672 209.667 62.2274 209.172 59.2641C208.759 56.3007 208.14 53.3374 207.315 50.3741C206.573 47.3284 205.541 44.6121 204.221 42.2249C202.984 39.7555 201.457 37.78 199.642 36.2983C197.909 34.8166 195.805 34.0758 193.33 34.0758C190.772 34.0758 188.462 34.6932 186.399 35.9279C184.336 37.0803 182.48 38.6443 180.83 40.6198C179.262 42.513 177.859 44.6944 176.622 47.1638C175.467 49.6333 174.518 52.185 173.775 54.8191C173.033 57.3708 172.455 59.9226 172.042 62.4743C171.712 64.9438 171.547 67.1663 171.547 69.1418Z"/>
<path d="M271.549 48.522C271.384 48.3574 271.178 48.0693 270.93 47.6577C270.683 47.2461 270.435 46.7934 270.188 46.2995C269.94 45.7233 269.693 45.2294 269.445 44.8178C269.28 44.324 269.197 43.9535 269.197 43.7066C269.197 42.9658 269.528 42.3896 270.188 41.978C270.848 41.5664 271.59 41.3195 272.415 41.2372C273.24 41.1548 274.024 41.1137 274.767 41.1137C275.592 41.1137 276.087 41.1137 276.252 41.1137C276.5 41.1137 276.83 41.1548 277.242 41.2372C277.737 41.2372 278.232 41.2783 278.727 41.3606C279.305 41.3606 279.8 41.4018 280.213 41.4841C280.625 41.4841 280.914 41.4841 281.079 41.4841C283.802 42.4719 286.896 43.6243 290.361 44.9413C293.909 46.2584 297.54 47.7812 301.252 49.5098C304.965 51.2384 308.596 53.2139 312.144 55.4364C315.692 57.5766 318.868 60.046 321.674 62.8447C324.479 65.5611 326.748 68.5656 328.481 71.8582C330.213 75.1508 331.08 78.8138 331.08 82.8472C331.08 86.3044 330.42 89.4324 329.099 92.2311C327.779 94.9474 326.005 97.3346 323.778 99.3924C321.632 101.368 319.116 103.097 316.228 104.578C313.34 105.978 310.37 107.13 307.317 108.035C304.347 108.859 301.335 109.476 298.282 109.888C295.229 110.299 292.383 110.505 289.742 110.505C289.165 110.505 288.175 110.464 286.772 110.381C285.369 110.381 283.925 110.34 282.44 110.258C280.955 110.176 279.594 110.134 278.356 110.134C277.201 110.052 276.582 110.011 276.5 110.011L276.252 105.443L271.549 48.522ZM278.604 47.9046C278.604 48.0693 278.604 48.3985 278.604 48.8924C278.604 49.3863 278.604 49.9625 278.604 50.621C278.686 51.1972 278.727 51.7323 278.727 52.2262C278.727 52.72 278.727 53.0905 278.727 53.3374C278.81 54.5721 278.892 56.5477 278.975 59.2641C279.14 61.9804 279.264 65.0672 279.346 68.5245C279.511 71.9817 279.676 75.6035 279.841 79.39C280.089 83.0941 280.295 86.6748 280.46 90.132C280.625 93.5069 280.749 96.5937 280.831 99.3924C280.996 102.109 281.079 104.126 281.079 105.443C281.574 105.443 282.358 105.484 283.43 105.566C284.586 105.566 285.782 105.607 287.02 105.689C288.257 105.689 289.412 105.731 290.485 105.813C291.64 105.813 292.465 105.813 292.96 105.813C296.756 105.813 300.51 105.36 304.223 104.455C307.936 103.467 311.236 102.026 314.124 100.133C317.094 98.1577 319.487 95.6471 321.302 92.6015C323.2 89.4735 324.149 85.7282 324.149 81.3655C324.149 78.1553 323.406 75.1096 321.921 72.2286C320.436 69.2653 318.456 66.5489 315.98 64.0795C313.588 61.61 310.824 59.3875 307.688 57.412C304.553 55.4364 301.294 53.749 297.911 52.3496C294.61 50.868 291.269 49.7567 287.886 49.0159C284.586 48.2751 281.491 47.9046 278.604 47.9046Z"/>
<path d="M335.164 43.7066C336.484 41.8134 338.217 40.2082 340.362 38.8912C342.59 37.4919 345.024 36.3394 347.664 35.434C350.387 34.5285 353.275 33.8289 356.328 33.335C359.463 32.8411 362.516 32.4707 365.486 32.2237C368.457 31.9768 371.344 31.8121 374.15 31.7298C376.955 31.6475 379.43 31.6064 381.576 31.6064C381.741 31.6064 382.112 31.6475 382.689 31.7298C383.267 31.7298 383.886 31.771 384.546 31.8533C385.206 31.8533 385.784 31.8533 386.279 31.8533C386.856 31.8533 387.269 31.8533 387.516 31.8533C387.846 33.6642 387.64 34.9401 386.897 35.6809C386.237 36.3394 385.33 36.751 384.175 36.9156C383.102 36.998 381.947 36.9568 380.709 36.7922C379.472 36.5452 378.564 36.5041 377.986 36.6687C377.161 36.751 375.841 36.998 374.026 37.4095C372.293 37.7388 370.354 38.1504 368.209 38.6443C366.064 39.0558 363.753 39.5497 361.278 40.1259C358.885 40.6198 356.575 41.1137 354.347 41.6076C352.202 42.0192 350.263 42.4307 348.53 42.8423C346.798 43.2539 345.519 43.542 344.694 43.7066C343.374 44.2005 342.631 44.8178 342.466 45.5587C342.301 46.2995 342.218 47.1638 342.218 48.1516C342.218 49.8802 342.301 51.8146 342.466 53.9548C342.714 56.0949 342.961 58.2351 343.209 60.3753C343.539 62.4332 343.827 64.3264 344.075 66.055C344.405 67.7836 344.611 69.0595 344.694 69.8826C345.024 69.965 345.643 70.0061 346.55 70.0061C347.458 70.0061 348.077 70.0061 348.407 70.0061C350.304 70.0061 352.161 69.8415 353.976 69.5122C355.791 69.183 357.607 68.8126 359.422 68.401C361.237 67.9894 363.093 67.6601 364.991 67.4132C366.889 67.0839 368.828 66.9193 370.808 66.9193V71.4878C369.983 71.4878 368.828 71.5701 367.343 71.7347C365.857 71.817 364.207 72.0228 362.392 72.3521C360.659 72.6813 358.885 73.0518 357.07 73.4633C355.255 73.7926 353.605 74.163 352.12 74.5746C350.634 74.9861 349.397 75.3977 348.407 75.8093C347.499 76.2209 347.045 76.6324 347.045 77.044V102.726C350.923 102.726 354.76 102.603 358.555 102.356C362.433 102.109 366.311 101.862 370.189 101.615C374.067 101.286 377.945 100.998 381.823 100.751C385.701 100.504 389.579 100.38 393.457 100.38C393.457 101.368 393.127 102.191 392.467 102.85C391.807 103.426 391.023 103.92 390.115 104.331C389.29 104.661 388.383 104.908 387.393 105.072C386.402 105.237 385.66 105.36 385.165 105.443C384.835 105.525 383.803 105.648 382.071 105.813C380.338 105.978 378.193 106.225 375.635 106.554C373.077 106.883 370.231 107.212 367.095 107.542C363.96 107.871 360.866 108.2 357.813 108.529C354.76 108.859 351.872 109.188 349.149 109.517C346.426 109.764 344.157 109.97 342.342 110.134C342.095 110.217 341.723 110.258 341.228 110.258C341.228 99.2278 340.857 88.1153 340.114 76.9205C339.454 65.6434 337.804 54.5721 335.164 43.7066Z"/>
<path d="M402.368 100.751C402.781 99.7628 403.399 99.1455 404.224 98.8985C405.132 98.6516 406.081 99.269 407.071 100.751C407.071 100.915 407.442 101.162 408.185 101.491C409.01 101.738 410 102.068 411.155 102.479C412.393 102.808 413.796 103.179 415.363 103.59C417.013 103.92 418.622 104.249 420.19 104.578C421.758 104.825 423.284 105.072 424.769 105.319C426.255 105.484 427.533 105.566 428.606 105.566C431.411 105.566 433.969 104.99 436.279 103.837C438.672 102.603 440.694 101.039 442.344 99.1455C444.077 97.2522 445.397 95.1121 446.304 92.7249C447.212 90.2555 447.666 87.7449 447.666 85.1932C447.666 84.4523 447.542 83.1764 447.294 81.3655C447.047 79.4723 446.634 77.6202 446.057 75.8093C445.479 73.9161 444.695 72.2286 443.705 70.7469C442.798 69.2653 441.684 68.5245 440.364 68.5245C431.783 69.5122 424.728 69.9238 419.2 69.7592C413.754 69.5122 409.423 68.8537 406.205 67.7836C402.987 66.7135 400.718 65.273 399.398 63.4621C398.16 61.5689 397.5 59.4287 397.417 57.0416C397.417 54.0782 398.16 51.2384 399.645 48.522C401.13 45.7233 403.028 43.2539 405.338 41.1137C407.649 38.9735 410.206 37.2861 413.012 36.0513C415.9 34.7343 418.746 34.0758 421.551 34.0758C423.862 34.0758 426.255 34.3639 428.73 34.9401C431.288 35.5163 433.639 36.4218 435.784 37.6565C437.93 38.8089 439.662 40.3729 440.982 42.3484C442.385 44.2416 443.086 46.5465 443.086 49.2628C441.106 49.2628 439.291 48.7278 437.641 47.6577C435.991 46.5053 434.34 45.3117 432.69 44.077C431.04 42.8423 429.307 41.6899 427.492 40.6198C425.677 39.4674 423.573 38.8912 421.18 38.8912C419.2 38.8912 417.178 39.3851 415.116 40.3729C413.136 41.3606 411.32 42.6365 409.67 44.2005C408.102 45.7645 406.782 47.5342 405.71 49.5098C404.72 51.403 404.224 53.3786 404.224 55.4364C404.224 56.2596 404.224 57.165 404.224 58.1528C404.307 59.0583 404.513 59.9637 404.843 60.8692C405.173 61.6923 405.668 62.392 406.328 62.9682C407.071 63.5444 408.102 63.8325 409.423 63.8325H442.715C444.118 63.8325 445.314 64.2852 446.304 65.1907C447.377 66.0139 448.243 67.0839 448.903 68.401C449.646 69.718 450.224 71.1997 450.636 72.846C451.131 74.4923 451.502 76.0974 451.75 77.6614C452.08 79.2253 452.286 80.707 452.369 82.1064C452.451 83.4234 452.493 84.4523 452.493 85.1932C452.493 88.4034 452.039 91.4491 451.131 94.3301C450.224 97.1288 448.862 99.6805 447.047 101.985C445.232 104.208 442.963 106.06 440.24 107.542C437.517 108.941 434.382 109.805 430.834 110.134C429.101 110.299 426.832 110.258 424.027 110.011C421.304 109.764 418.54 109.311 415.735 108.653C412.929 107.912 410.289 106.924 407.814 105.689C405.338 104.372 403.523 102.726 402.368 100.751Z"/>
<path d="M458.186 23.3337C458.186 22.346 458.516 21.564 459.176 20.9878C459.918 20.3293 460.785 20 461.775 20C461.857 20 462.064 20 462.394 20C462.724 20 462.93 20 463.013 20C463.425 26.9144 463.796 33.4996 464.126 39.7555C464.456 45.9291 464.704 52.0204 464.869 58.0293C465.117 64.0383 465.282 70.0473 465.364 76.0562C465.447 81.9829 465.488 88.1976 465.488 94.7005C465.488 95.606 465.529 96.8407 465.612 98.4046C465.777 99.9686 465.9 101.491 465.983 102.973C466.148 104.455 466.272 105.813 466.354 107.048C466.519 108.2 466.602 108.817 466.602 108.9L461.28 109.888C461.115 106.513 460.95 102.644 460.785 98.2812C460.62 93.8362 460.455 89.1443 460.29 84.2054C460.207 79.1842 460.083 74.0395 459.918 68.7714C459.836 63.4209 459.671 58.1528 459.423 52.967C459.258 47.7812 459.052 42.8011 458.805 38.0269C458.64 33.1703 458.433 28.7665 458.186 24.8154V23.3337Z"/>
<path d="M528.236 101.985C525.019 103.632 522.172 104.949 519.697 105.936C517.221 106.924 514.829 107.706 512.518 108.282C510.208 108.776 507.857 109.106 505.464 109.27C503.153 109.435 500.472 109.517 497.419 109.517C493.376 109.517 489.746 109.064 486.528 108.159C483.31 107.171 480.546 105.731 478.236 103.837C476.008 101.862 474.275 99.3924 473.037 96.4291C471.8 93.3835 471.181 89.7205 471.181 85.4401C471.181 81.5713 471.552 77.4967 472.295 73.2164C473.12 68.936 474.275 64.6968 475.76 60.4988C477.328 56.2184 479.226 52.1438 481.453 48.2751C483.764 44.324 486.445 40.8667 489.498 37.9034C492.551 34.9401 495.975 32.5941 499.771 30.8655C503.566 29.0546 507.774 28.1491 512.395 28.1491C514.127 28.1491 516.19 28.3549 518.583 28.7665C520.976 29.0958 523.245 29.7131 525.39 30.6186C527.618 31.4417 529.474 32.6764 530.959 34.3227C532.444 35.8867 533.187 37.9034 533.187 40.3729C533.187 41.2783 532.733 41.7311 531.826 41.7311C531 41.6487 529.928 41.3195 528.608 40.7433C527.37 40.1671 525.926 39.4262 524.276 38.5208C522.708 37.6153 521.182 36.751 519.697 35.9279C518.211 35.1047 516.85 34.4051 515.612 33.8289C514.375 33.2526 513.426 33.0469 512.766 33.2115C508.805 33.2115 505.216 33.9935 501.998 35.5575C498.78 37.0391 495.851 39.0558 493.211 41.6076C490.653 44.1593 488.384 47.1227 486.404 50.4976C484.506 53.7901 482.897 57.2474 481.577 60.8692C480.34 64.491 479.391 68.1129 478.731 71.7347C478.153 75.2742 477.864 78.6491 477.864 81.8594C477.287 85.7282 477.493 89.1031 478.483 91.9841C479.556 94.7828 481.123 97.1288 483.186 99.022C485.249 100.833 487.724 102.191 490.612 103.097C493.5 104.002 496.47 104.537 499.523 104.702C502.658 104.784 505.753 104.496 508.805 103.837C511.858 103.097 514.622 102.026 517.098 100.627C519.655 99.2278 521.718 97.4992 523.286 95.4413C524.936 93.3835 525.885 91.0786 526.132 88.5269C526.132 85.8928 525.596 83.6703 524.523 81.8594C523.533 80.0485 522.172 78.5257 520.439 77.291C518.789 76.0562 516.85 75.0685 514.622 74.3276C512.477 73.5868 510.249 73.0106 507.939 72.599C505.711 72.1875 503.442 71.8993 501.132 71.7347C498.904 71.5701 496.841 71.3643 494.944 71.1174V68.8949C494.944 68.7302 496.016 68.4421 498.162 68.0306C500.389 67.619 502.988 67.1663 505.959 66.6724C509.012 66.1785 512.147 65.6846 515.365 65.1907C518.583 64.6968 521.306 64.3264 523.533 64.0795C523.533 64.0795 523.74 64.0795 524.152 64.0795C524.565 63.9971 525.019 63.956 525.514 63.956C526.009 63.956 526.504 63.956 526.999 63.956C527.494 63.956 527.906 63.956 528.236 63.956C528.401 63.956 528.69 63.956 529.103 63.956C529.598 63.956 530.093 63.956 530.588 63.956C531.083 63.956 531.537 63.9971 531.949 64.0795C532.444 64.0795 532.774 64.0795 532.939 64.0795C533.022 65.2319 533.104 67.0839 533.187 69.6357C533.352 72.1051 533.517 74.9038 533.682 78.0318C533.847 81.0774 534.012 84.3289 534.177 87.7861C534.342 91.2433 534.507 94.5359 534.672 97.6638C534.837 100.709 534.961 103.467 535.043 105.936C535.208 108.406 535.332 110.258 535.415 111.493C535.415 111.822 535.415 112.439 535.415 113.345C535.415 114.25 535.415 115.197 535.415 116.185C535.497 117.255 535.539 118.201 535.539 119.024C535.539 119.93 535.539 120.588 535.539 121H532.939L528.236 101.985ZM528.236 75.9328V68.401C526.999 68.401 525.72 68.7302 524.4 69.3888C523.08 69.965 521.966 70.5412 521.058 71.1174L528.236 75.9328Z"/>
<path d="M547.296 36.6687C547.296 36.9156 547.255 37.4507 547.172 38.2738C547.172 39.097 547.172 39.9613 547.172 40.8667C547.172 41.6899 547.172 42.513 547.172 43.3362C547.172 44.077 547.172 44.5709 547.172 44.8178C547.172 50.1683 547.296 55.5187 547.544 60.8692C547.791 66.2196 548.08 71.6112 548.41 77.044C548.74 82.3945 549.029 87.7861 549.276 93.2188C549.524 98.6516 549.648 104.084 549.648 109.517L545.192 109.27C545.11 107.706 544.945 105.525 544.697 102.726C544.532 99.9275 544.285 96.7172 543.954 93.0954C543.707 89.3912 543.418 85.4401 543.088 81.2421C542.758 77.044 542.387 72.8048 541.974 68.5245C541.644 64.1618 541.355 59.8814 541.108 55.6834C540.86 51.4853 540.613 47.6165 540.365 44.077C540.2 40.4552 540.077 37.2861 539.994 34.5697C539.912 31.771 539.912 29.6308 539.994 28.1491C539.994 27.1614 540.365 26.3382 541.108 25.6797C541.85 25.0212 542.717 24.6919 543.707 24.6919C544.697 24.6919 545.811 24.9389 547.049 25.4328C548.369 25.8443 549.235 26.4205 549.648 27.1614L594.203 98.8985C594.203 95.1121 594.079 91.0375 593.832 86.6748C593.667 82.3121 593.502 77.826 593.336 73.2164C593.171 68.6068 593.048 63.9971 592.965 59.3875C592.965 54.6956 593.048 50.1683 593.213 45.8056C593.46 41.3606 593.873 37.1626 594.45 33.2115C595.11 29.2604 596.018 25.6797 597.173 22.4694C598.328 22.0579 599.236 21.8521 599.896 21.8521C600.556 21.7698 601.051 21.7698 601.381 21.8521C601.711 21.9344 601.876 22.1402 601.876 22.4694C601.959 22.7987 602 23.128 602 23.4572C602 23.6218 602 23.8688 602 24.198C602 24.5273 602 24.7331 602 24.8154C601.835 25.3093 601.629 26.2148 601.381 27.5318C601.216 28.8488 600.969 30.8244 600.639 33.4584C600.309 36.0102 600.02 39.3439 599.772 43.4597C599.525 47.5754 599.277 52.6789 599.03 58.7702C598.782 64.8615 598.576 72.1051 598.411 80.5012C598.328 88.8973 598.328 98.6927 598.411 109.888L594.822 110.134L547.296 36.6687Z"/>
<path d="M156.484 60.614C156.484 69.9245 152.513 77.472 147.613 77.472C142.713 77.472 138.742 69.9245 138.742 60.614C138.742 51.3036 142.713 43.756 147.613 43.756C152.513 43.756 156.484 51.3036 156.484 60.614Z"/>
<path d="M210.37 56.0189C212.308 65.4831 209.802 73.9861 204.773 75.0109C199.744 76.0357 194.096 69.1942 192.159 59.7301C190.221 50.2659 192.727 41.7629 197.756 40.7381C202.785 39.7133 208.433 46.5548 210.37 56.0189Z"/>
</mask>
<path d="M47.5354 79.2665C44.235 87.5803 40.9759 94.0008 37.758 98.5281C34.5402 103.055 31.4048 106.101 28.3519 107.665C25.2991 109.147 22.4112 109.311 19.6884 108.159C16.9656 107.007 14.4491 104.908 12.1388 101.862C9.91104 98.7339 7.97206 94.824 6.32187 90.132C4.75419 85.4401 3.47529 80.2954 2.48517 74.698C1.57757 69.1007 1.08251 63.2563 1 57.165C1 50.9914 1.49506 44.9413 2.48517 39.0147L7.31199 39.5086C6.40438 50.0448 6.28062 59.2229 6.94069 67.0428C7.68328 74.7804 8.83841 81.2421 10.4061 86.4279C11.9738 91.6137 13.789 95.5648 15.8517 98.2812C17.9145 100.998 19.8947 102.562 21.7924 102.973C24.5977 102.973 27.073 102.232 29.2183 100.751C31.446 99.269 33.385 97.3346 35.0352 94.9474C36.7679 92.5603 38.2118 89.8439 39.367 86.7983C40.6046 83.7527 41.5947 80.6659 42.3373 77.5379C43.0799 74.4099 43.6162 71.4055 43.9463 68.5245C44.2763 65.5611 44.4413 63.0094 44.4413 60.8692C44.4413 58.0705 44.3588 55.6011 44.1938 53.4609C44.0288 51.2384 43.74 49.0571 43.3274 46.9169C42.9974 44.7767 42.5848 42.5954 42.0898 40.3729C41.6772 38.0681 41.1822 35.434 40.6046 32.4707L46.6691 28.0257C48.5668 39.9613 50.1757 50.2095 51.4959 58.7702C52.8985 67.2486 54.0949 74.3688 55.085 80.1308C56.0752 85.8105 56.859 90.379 57.4366 93.8362C58.0141 97.2111 58.4679 99.8863 58.798 101.862C59.2105 103.755 59.4581 105.113 59.5406 105.936C59.7056 106.677 59.7881 107.295 59.7881 107.789H54.7138L47.5354 79.2665Z" fill="white"/>
<path d="M62.7584 43.0892L64.7387 36.6687C64.8212 36.5864 65.44 36.5041 66.5951 36.4218C67.8328 36.2571 69.4417 36.0925 71.422 35.9279C73.4022 35.6809 75.6299 35.434 78.1052 35.187C80.5805 34.9401 83.0971 34.6932 85.6549 34.4462C88.2952 34.1993 90.853 33.9523 93.3283 33.7054C95.8861 33.4584 98.2376 33.2115 100.383 32.9645C100.383 32.9645 100.754 32.9645 101.497 32.9645C102.239 32.9645 103.064 32.9645 103.972 32.9645C104.88 32.9645 105.746 32.9645 106.571 32.9645C107.396 32.9645 107.932 32.9645 108.18 32.9645C110.16 32.9645 111.522 33.335 112.264 34.0758C113.007 34.8166 113.378 36.4218 113.378 38.8912L90.853 41.4841C90.6879 46.6699 90.7705 52.1027 91.1005 57.7824C91.4305 63.4621 91.8431 69.2241 92.3381 75.0685C92.8332 80.8305 93.287 86.5513 93.6995 92.2311C94.1946 97.9108 94.4421 103.344 94.4421 108.529C94.4421 109.27 94.1946 109.805 93.6995 110.134C93.287 110.381 92.7507 110.546 92.0906 110.628C91.513 110.711 90.8942 110.67 90.2341 110.505C89.5741 110.423 88.9965 110.299 88.5014 110.134C88.2539 109.064 88.0064 107.212 87.7589 104.578C87.5113 101.944 87.2638 98.8574 87.0163 95.3179C86.7687 91.7783 86.5212 87.9507 86.2737 83.835C86.0262 79.7192 85.7786 75.6035 85.5311 71.4878C85.2836 67.372 85.036 63.4621 84.7885 59.7579C84.541 55.9715 84.3347 52.6789 84.1697 49.8802C84.0047 46.9992 83.8396 44.7767 83.6746 43.2127C83.5921 41.6487 83.5096 41.0725 83.4271 41.4841L62.7584 43.0892Z" fill="white"/>
<path d="M112.14 69.1418C112.14 66.4254 112.305 63.5444 112.636 60.4988C113.048 57.4531 113.667 54.4898 114.492 51.6088C115.4 48.6455 116.513 45.8468 117.834 43.2127C119.236 40.4963 120.886 38.1504 122.784 36.1748C124.764 34.117 127.033 32.5118 129.591 31.3594C132.232 30.1247 135.202 29.5073 138.502 29.5073C141.39 29.5073 143.948 30.3305 146.176 31.9768C148.403 33.5408 150.342 35.6398 151.993 38.2738C153.643 40.8256 155.004 43.7478 156.077 47.0403C157.149 50.3329 158.016 53.6667 158.676 57.0416C159.418 60.3341 159.914 63.5444 160.161 66.6724C160.409 69.718 160.532 72.3521 160.532 74.5746C160.202 79.4311 159.501 83.9173 158.428 88.033C157.356 92.0664 155.871 95.6471 153.973 98.7751C152.158 101.821 149.889 104.331 147.166 106.307C144.443 108.282 141.143 109.599 137.265 110.258C133.552 110.258 130.375 109.599 127.735 108.282C125.094 106.965 122.825 105.237 120.928 103.097C119.03 100.956 117.504 98.487 116.348 95.6883C115.193 92.8896 114.286 89.9674 113.626 86.9218C113.048 83.8761 112.636 80.8305 112.388 77.7848C112.223 74.6569 112.14 71.7759 112.14 69.1418ZM116.843 69.1418C116.843 71.1174 116.885 73.3399 116.967 75.8093C117.05 78.2787 117.256 80.7893 117.586 83.3411C117.999 85.8105 118.576 88.28 119.319 90.7494C120.061 93.1365 121.051 95.2767 122.289 97.1699C123.609 98.9808 125.218 100.463 127.116 101.615C129.096 102.767 131.448 103.344 134.171 103.344C138.131 103.59 141.39 103.097 143.948 101.862C146.506 100.627 148.568 98.7339 150.136 96.1822C151.704 93.6304 152.9 90.5436 153.725 86.9218C154.55 83.2999 155.21 79.1842 155.706 74.5746C155.706 72.7637 155.623 70.5 155.458 67.7836C155.293 65.0672 154.963 62.2274 154.468 59.2641C154.055 56.3007 153.437 53.3374 152.611 50.3741C151.869 47.3284 150.837 44.6121 149.517 42.2249C148.28 39.7555 146.753 37.78 144.938 36.2983C143.205 34.8166 141.101 34.0758 138.626 34.0758C136.068 34.0758 133.758 34.6932 131.695 35.9279C129.632 37.0803 127.776 38.6443 126.126 40.6198C124.558 42.513 123.155 44.6944 121.918 47.1638C120.763 49.6333 119.814 52.185 119.071 54.8191C118.329 57.3708 117.751 59.9226 117.339 62.4743C117.009 64.9438 116.843 67.1663 116.843 69.1418Z" fill="white"/>
<path d="M166.844 69.1418C166.844 66.4254 167.009 63.5444 167.339 60.4988C167.752 57.4531 168.371 54.4898 169.196 51.6088C170.103 48.6455 171.217 45.8468 172.537 43.2127C173.94 40.4963 175.59 38.1504 177.488 36.1748C179.468 34.117 181.737 32.5118 184.295 31.3594C186.935 30.1247 189.906 29.5073 193.206 29.5073C196.094 29.5073 198.652 30.3305 200.88 31.9768C203.107 33.5408 205.046 35.6398 206.696 38.2738C208.347 40.8256 209.708 43.7478 210.781 47.0403C211.853 50.3329 212.72 53.6667 213.38 57.0416C214.122 60.3341 214.617 63.5444 214.865 66.6724C215.112 69.718 215.236 72.3521 215.236 74.5746C214.906 79.4311 214.205 83.9173 213.132 88.033C212.06 92.0664 210.574 95.6471 208.677 98.7751C206.861 101.821 204.592 104.331 201.87 106.307C199.147 108.282 195.846 109.599 191.968 110.258C188.256 110.258 185.079 109.599 182.439 108.282C179.798 106.965 177.529 105.237 175.632 103.097C173.734 100.956 172.207 98.487 171.052 95.6883C169.897 92.8896 168.99 89.9674 168.329 86.9218C167.752 83.8761 167.339 80.8305 167.092 77.7848C166.927 74.6569 166.844 71.7759 166.844 69.1418ZM171.547 69.1418C171.547 71.1174 171.589 73.3399 171.671 75.8093C171.754 78.2787 171.96 80.7893 172.29 83.3411C172.702 85.8105 173.28 88.28 174.023 90.7494C174.765 93.1365 175.755 95.2767 176.993 97.1699C178.313 98.9808 179.922 100.463 181.82 101.615C183.8 102.767 186.152 103.344 188.874 103.344C192.835 103.59 196.094 103.097 198.652 101.862C201.21 100.627 203.272 98.7339 204.84 96.1822C206.408 93.6304 207.604 90.5436 208.429 86.9218C209.254 83.2999 209.914 79.1842 210.409 74.5746C210.409 72.7637 210.327 70.5 210.162 67.7836C209.997 65.0672 209.667 62.2274 209.172 59.2641C208.759 56.3007 208.14 53.3374 207.315 50.3741C206.573 47.3284 205.541 44.6121 204.221 42.2249C202.984 39.7555 201.457 37.78 199.642 36.2983C197.909 34.8166 195.805 34.0758 193.33 34.0758C190.772 34.0758 188.462 34.6932 186.399 35.9279C184.336 37.0803 182.48 38.6443 180.83 40.6198C179.262 42.513 177.859 44.6944 176.622 47.1638C175.467 49.6333 174.518 52.185 173.775 54.8191C173.033 57.3708 172.455 59.9226 172.042 62.4743C171.712 64.9438 171.547 67.1663 171.547 69.1418Z" fill="white"/>
<path d="M271.549 48.522C271.384 48.3574 271.178 48.0693 270.93 47.6577C270.683 47.2461 270.435 46.7934 270.188 46.2995C269.94 45.7233 269.693 45.2294 269.445 44.8178C269.28 44.324 269.197 43.9535 269.197 43.7066C269.197 42.9658 269.528 42.3896 270.188 41.978C270.848 41.5664 271.59 41.3195 272.415 41.2372C273.24 41.1548 274.024 41.1137 274.767 41.1137C275.592 41.1137 276.087 41.1137 276.252 41.1137C276.5 41.1137 276.83 41.1548 277.242 41.2372C277.737 41.2372 278.232 41.2783 278.727 41.3606C279.305 41.3606 279.8 41.4018 280.213 41.4841C280.625 41.4841 280.914 41.4841 281.079 41.4841C283.802 42.4719 286.896 43.6243 290.361 44.9413C293.909 46.2584 297.54 47.7812 301.252 49.5098C304.965 51.2384 308.596 53.2139 312.144 55.4364C315.692 57.5766 318.868 60.046 321.674 62.8447C324.479 65.5611 326.748 68.5656 328.481 71.8582C330.213 75.1508 331.08 78.8138 331.08 82.8472C331.08 86.3044 330.42 89.4324 329.099 92.2311C327.779 94.9474 326.005 97.3346 323.778 99.3924C321.632 101.368 319.116 103.097 316.228 104.578C313.34 105.978 310.37 107.13 307.317 108.035C304.347 108.859 301.335 109.476 298.282 109.888C295.229 110.299 292.383 110.505 289.742 110.505C289.165 110.505 288.175 110.464 286.772 110.381C285.369 110.381 283.925 110.34 282.44 110.258C280.955 110.176 279.594 110.134 278.356 110.134C277.201 110.052 276.582 110.011 276.5 110.011L276.252 105.443L271.549 48.522ZM278.604 47.9046C278.604 48.0693 278.604 48.3985 278.604 48.8924C278.604 49.3863 278.604 49.9625 278.604 50.621C278.686 51.1972 278.727 51.7323 278.727 52.2262C278.727 52.72 278.727 53.0905 278.727 53.3374C278.81 54.5721 278.892 56.5477 278.975 59.2641C279.14 61.9804 279.264 65.0672 279.346 68.5245C279.511 71.9817 279.676 75.6035 279.841 79.39C280.089 83.0941 280.295 86.6748 280.46 90.132C280.625 93.5069 280.749 96.5937 280.831 99.3924C280.996 102.109 281.079 104.126 281.079 105.443C281.574 105.443 282.358 105.484 283.43 105.566C284.586 105.566 285.782 105.607 287.02 105.689C288.257 105.689 289.412 105.731 290.485 105.813C291.64 105.813 292.465 105.813 292.96 105.813C296.756 105.813 300.51 105.36 304.223 104.455C307.936 103.467 311.236 102.026 314.124 100.133C317.094 98.1577 319.487 95.6471 321.302 92.6015C323.2 89.4735 324.149 85.7282 324.149 81.3655C324.149 78.1553 323.406 75.1096 321.921 72.2286C320.436 69.2653 318.456 66.5489 315.98 64.0795C313.588 61.61 310.824 59.3875 307.688 57.412C304.553 55.4364 301.294 53.749 297.911 52.3496C294.61 50.868 291.269 49.7567 287.886 49.0159C284.586 48.2751 281.491 47.9046 278.604 47.9046Z" fill="white"/>
<path d="M335.164 43.7066C336.484 41.8134 338.217 40.2082 340.362 38.8912C342.59 37.4919 345.024 36.3394 347.664 35.434C350.387 34.5285 353.275 33.8289 356.328 33.335C359.463 32.8411 362.516 32.4707 365.486 32.2237C368.457 31.9768 371.344 31.8121 374.15 31.7298C376.955 31.6475 379.43 31.6064 381.576 31.6064C381.741 31.6064 382.112 31.6475 382.689 31.7298C383.267 31.7298 383.886 31.771 384.546 31.8533C385.206 31.8533 385.784 31.8533 386.279 31.8533C386.856 31.8533 387.269 31.8533 387.516 31.8533C387.846 33.6642 387.64 34.9401 386.897 35.6809C386.237 36.3394 385.33 36.751 384.175 36.9156C383.102 36.998 381.947 36.9568 380.709 36.7922C379.472 36.5452 378.564 36.5041 377.986 36.6687C377.161 36.751 375.841 36.998 374.026 37.4095C372.293 37.7388 370.354 38.1504 368.209 38.6443C366.064 39.0558 363.753 39.5497 361.278 40.1259C358.885 40.6198 356.575 41.1137 354.347 41.6076C352.202 42.0192 350.263 42.4307 348.53 42.8423C346.798 43.2539 345.519 43.542 344.694 43.7066C343.374 44.2005 342.631 44.8178 342.466 45.5587C342.301 46.2995 342.218 47.1638 342.218 48.1516C342.218 49.8802 342.301 51.8146 342.466 53.9548C342.714 56.0949 342.961 58.2351 343.209 60.3753C343.539 62.4332 343.827 64.3264 344.075 66.055C344.405 67.7836 344.611 69.0595 344.694 69.8826C345.024 69.965 345.643 70.0061 346.55 70.0061C347.458 70.0061 348.077 70.0061 348.407 70.0061C350.304 70.0061 352.161 69.8415 353.976 69.5122C355.791 69.183 357.607 68.8126 359.422 68.401C361.237 67.9894 363.093 67.6601 364.991 67.4132C366.889 67.0839 368.828 66.9193 370.808 66.9193V71.4878C369.983 71.4878 368.828 71.5701 367.343 71.7347C365.857 71.817 364.207 72.0228 362.392 72.3521C360.659 72.6813 358.885 73.0518 357.07 73.4633C355.255 73.7926 353.605 74.163 352.12 74.5746C350.634 74.9861 349.397 75.3977 348.407 75.8093C347.499 76.2209 347.045 76.6324 347.045 77.044V102.726C350.923 102.726 354.76 102.603 358.555 102.356C362.433 102.109 366.311 101.862 370.189 101.615C374.067 101.286 377.945 100.998 381.823 100.751C385.701 100.504 389.579 100.38 393.457 100.38C393.457 101.368 393.127 102.191 392.467 102.85C391.807 103.426 391.023 103.92 390.115 104.331C389.29 104.661 388.383 104.908 387.393 105.072C386.402 105.237 385.66 105.36 385.165 105.443C384.835 105.525 383.803 105.648 382.071 105.813C380.338 105.978 378.193 106.225 375.635 106.554C373.077 106.883 370.231 107.212 367.095 107.542C363.96 107.871 360.866 108.2 357.813 108.529C354.76 108.859 351.872 109.188 349.149 109.517C346.426 109.764 344.157 109.97 342.342 110.134C342.095 110.217 341.723 110.258 341.228 110.258C341.228 99.2278 340.857 88.1153 340.114 76.9205C339.454 65.6434 337.804 54.5721 335.164 43.7066Z" fill="white"/>
<path d="M402.368 100.751C402.781 99.7628 403.399 99.1455 404.224 98.8985C405.132 98.6516 406.081 99.269 407.071 100.751C407.071 100.915 407.442 101.162 408.185 101.491C409.01 101.738 410 102.068 411.155 102.479C412.393 102.808 413.796 103.179 415.363 103.59C417.013 103.92 418.622 104.249 420.19 104.578C421.758 104.825 423.284 105.072 424.769 105.319C426.255 105.484 427.533 105.566 428.606 105.566C431.411 105.566 433.969 104.99 436.279 103.837C438.672 102.603 440.694 101.039 442.344 99.1455C444.077 97.2522 445.397 95.1121 446.304 92.7249C447.212 90.2555 447.666 87.7449 447.666 85.1932C447.666 84.4523 447.542 83.1764 447.294 81.3655C447.047 79.4723 446.634 77.6202 446.057 75.8093C445.479 73.9161 444.695 72.2286 443.705 70.7469C442.798 69.2653 441.684 68.5245 440.364 68.5245C431.783 69.5122 424.728 69.9238 419.2 69.7592C413.754 69.5122 409.423 68.8537 406.205 67.7836C402.987 66.7135 400.718 65.273 399.398 63.4621C398.16 61.5689 397.5 59.4287 397.417 57.0416C397.417 54.0782 398.16 51.2384 399.645 48.522C401.13 45.7233 403.028 43.2539 405.338 41.1137C407.649 38.9735 410.206 37.2861 413.012 36.0513C415.9 34.7343 418.746 34.0758 421.551 34.0758C423.862 34.0758 426.255 34.3639 428.73 34.9401C431.288 35.5163 433.639 36.4218 435.784 37.6565C437.93 38.8089 439.662 40.3729 440.982 42.3484C442.385 44.2416 443.086 46.5465 443.086 49.2628C441.106 49.2628 439.291 48.7278 437.641 47.6577C435.991 46.5053 434.34 45.3117 432.69 44.077C431.04 42.8423 429.307 41.6899 427.492 40.6198C425.677 39.4674 423.573 38.8912 421.18 38.8912C419.2 38.8912 417.178 39.3851 415.116 40.3729C413.136 41.3606 411.32 42.6365 409.67 44.2005C408.102 45.7645 406.782 47.5342 405.71 49.5098C404.72 51.403 404.224 53.3786 404.224 55.4364C404.224 56.2596 404.224 57.165 404.224 58.1528C404.307 59.0583 404.513 59.9637 404.843 60.8692C405.173 61.6923 405.668 62.392 406.328 62.9682C407.071 63.5444 408.102 63.8325 409.423 63.8325H442.715C444.118 63.8325 445.314 64.2852 446.304 65.1907C447.377 66.0139 448.243 67.0839 448.903 68.401C449.646 69.718 450.224 71.1997 450.636 72.846C451.131 74.4923 451.502 76.0974 451.75 77.6614C452.08 79.2253 452.286 80.707 452.369 82.1064C452.451 83.4234 452.493 84.4523 452.493 85.1932C452.493 88.4034 452.039 91.4491 451.131 94.3301C450.224 97.1288 448.862 99.6805 447.047 101.985C445.232 104.208 442.963 106.06 440.24 107.542C437.517 108.941 434.382 109.805 430.834 110.134C429.101 110.299 426.832 110.258 424.027 110.011C421.304 109.764 418.54 109.311 415.735 108.653C412.929 107.912 410.289 106.924 407.814 105.689C405.338 104.372 403.523 102.726 402.368 100.751Z" fill="white"/>
<path d="M458.186 23.3337C458.186 22.346 458.516 21.564 459.176 20.9878C459.918 20.3293 460.785 20 461.775 20C461.857 20 462.064 20 462.394 20C462.724 20 462.93 20 463.013 20C463.425 26.9144 463.796 33.4996 464.126 39.7555C464.456 45.9291 464.704 52.0204 464.869 58.0293C465.117 64.0383 465.282 70.0473 465.364 76.0562C465.447 81.9829 465.488 88.1976 465.488 94.7005C465.488 95.606 465.529 96.8407 465.612 98.4046C465.777 99.9686 465.9 101.491 465.983 102.973C466.148 104.455 466.272 105.813 466.354 107.048C466.519 108.2 466.602 108.817 466.602 108.9L461.28 109.888C461.115 106.513 460.95 102.644 460.785 98.2812C460.62 93.8362 460.455 89.1443 460.29 84.2054C460.207 79.1842 460.083 74.0395 459.918 68.7714C459.836 63.4209 459.671 58.1528 459.423 52.967C459.258 47.7812 459.052 42.8011 458.805 38.0269C458.64 33.1703 458.433 28.7665 458.186 24.8154V23.3337Z" fill="white"/>
<path d="M528.236 101.985C525.019 103.632 522.172 104.949 519.697 105.936C517.221 106.924 514.829 107.706 512.518 108.282C510.208 108.776 507.857 109.106 505.464 109.27C503.153 109.435 500.472 109.517 497.419 109.517C493.376 109.517 489.746 109.064 486.528 108.159C483.31 107.171 480.546 105.731 478.236 103.837C476.008 101.862 474.275 99.3924 473.037 96.4291C471.8 93.3835 471.181 89.7205 471.181 85.4401C471.181 81.5713 471.552 77.4967 472.295 73.2164C473.12 68.936 474.275 64.6968 475.76 60.4988C477.328 56.2184 479.226 52.1438 481.453 48.2751C483.764 44.324 486.445 40.8667 489.498 37.9034C492.551 34.9401 495.975 32.5941 499.771 30.8655C503.566 29.0546 507.774 28.1491 512.395 28.1491C514.127 28.1491 516.19 28.3549 518.583 28.7665C520.976 29.0958 523.245 29.7131 525.39 30.6186C527.618 31.4417 529.474 32.6764 530.959 34.3227C532.444 35.8867 533.187 37.9034 533.187 40.3729C533.187 41.2783 532.733 41.7311 531.826 41.7311C531 41.6487 529.928 41.3195 528.608 40.7433C527.37 40.1671 525.926 39.4262 524.276 38.5208C522.708 37.6153 521.182 36.751 519.697 35.9279C518.211 35.1047 516.85 34.4051 515.612 33.8289C514.375 33.2526 513.426 33.0469 512.766 33.2115C508.805 33.2115 505.216 33.9935 501.998 35.5575C498.78 37.0391 495.851 39.0558 493.211 41.6076C490.653 44.1593 488.384 47.1227 486.404 50.4976C484.506 53.7901 482.897 57.2474 481.577 60.8692C480.34 64.491 479.391 68.1129 478.731 71.7347C478.153 75.2742 477.864 78.6491 477.864 81.8594C477.287 85.7282 477.493 89.1031 478.483 91.9841C479.556 94.7828 481.123 97.1288 483.186 99.022C485.249 100.833 487.724 102.191 490.612 103.097C493.5 104.002 496.47 104.537 499.523 104.702C502.658 104.784 505.753 104.496 508.805 103.837C511.858 103.097 514.622 102.026 517.098 100.627C519.655 99.2278 521.718 97.4992 523.286 95.4413C524.936 93.3835 525.885 91.0786 526.132 88.5269C526.132 85.8928 525.596 83.6703 524.523 81.8594C523.533 80.0485 522.172 78.5257 520.439 77.291C518.789 76.0562 516.85 75.0685 514.622 74.3276C512.477 73.5868 510.249 73.0106 507.939 72.599C505.711 72.1875 503.442 71.8993 501.132 71.7347C498.904 71.5701 496.841 71.3643 494.944 71.1174V68.8949C494.944 68.7302 496.016 68.4421 498.162 68.0306C500.389 67.619 502.988 67.1663 505.959 66.6724C509.012 66.1785 512.147 65.6846 515.365 65.1907C518.583 64.6968 521.306 64.3264 523.533 64.0795C523.533 64.0795 523.74 64.0795 524.152 64.0795C524.565 63.9971 525.019 63.956 525.514 63.956C526.009 63.956 526.504 63.956 526.999 63.956C527.494 63.956 527.906 63.956 528.236 63.956C528.401 63.956 528.69 63.956 529.103 63.956C529.598 63.956 530.093 63.956 530.588 63.956C531.083 63.956 531.537 63.9971 531.949 64.0795C532.444 64.0795 532.774 64.0795 532.939 64.0795C533.022 65.2319 533.104 67.0839 533.187 69.6357C533.352 72.1051 533.517 74.9038 533.682 78.0318C533.847 81.0774 534.012 84.3289 534.177 87.7861C534.342 91.2433 534.507 94.5359 534.672 97.6638C534.837 100.709 534.961 103.467 535.043 105.936C535.208 108.406 535.332 110.258 535.415 111.493C535.415 111.822 535.415 112.439 535.415 113.345C535.415 114.25 535.415 115.197 535.415 116.185C535.497 117.255 535.539 118.201 535.539 119.024C535.539 119.93 535.539 120.588 535.539 121H532.939L528.236 101.985ZM528.236 75.9328V68.401C526.999 68.401 525.72 68.7302 524.4 69.3888C523.08 69.965 521.966 70.5412 521.058 71.1174L528.236 75.9328Z" fill="white"/>
<path d="M547.296 36.6687C547.296 36.9156 547.255 37.4507 547.172 38.2738C547.172 39.097 547.172 39.9613 547.172 40.8667C547.172 41.6899 547.172 42.513 547.172 43.3362C547.172 44.077 547.172 44.5709 547.172 44.8178C547.172 50.1683 547.296 55.5187 547.544 60.8692C547.791 66.2196 548.08 71.6112 548.41 77.044C548.74 82.3945 549.029 87.7861 549.276 93.2188C549.524 98.6516 549.648 104.084 549.648 109.517L545.192 109.27C545.11 107.706 544.945 105.525 544.697 102.726C544.532 99.9275 544.285 96.7172 543.954 93.0954C543.707 89.3912 543.418 85.4401 543.088 81.2421C542.758 77.044 542.387 72.8048 541.974 68.5245C541.644 64.1618 541.355 59.8814 541.108 55.6834C540.86 51.4853 540.613 47.6165 540.365 44.077C540.2 40.4552 540.077 37.2861 539.994 34.5697C539.912 31.771 539.912 29.6308 539.994 28.1491C539.994 27.1614 540.365 26.3382 541.108 25.6797C541.85 25.0212 542.717 24.6919 543.707 24.6919C544.697 24.6919 545.811 24.9389 547.049 25.4328C548.369 25.8443 549.235 26.4205 549.648 27.1614L594.203 98.8985C594.203 95.1121 594.079 91.0375 593.832 86.6748C593.667 82.3121 593.502 77.826 593.336 73.2164C593.171 68.6068 593.048 63.9971 592.965 59.3875C592.965 54.6956 593.048 50.1683 593.213 45.8056C593.46 41.3606 593.873 37.1626 594.45 33.2115C595.11 29.2604 596.018 25.6797 597.173 22.4694C598.328 22.0579 599.236 21.8521 599.896 21.8521C600.556 21.7698 601.051 21.7698 601.381 21.8521C601.711 21.9344 601.876 22.1402 601.876 22.4694C601.959 22.7987 602 23.128 602 23.4572C602 23.6218 602 23.8688 602 24.198C602 24.5273 602 24.7331 602 24.8154C601.835 25.3093 601.629 26.2148 601.381 27.5318C601.216 28.8488 600.969 30.8244 600.639 33.4584C600.309 36.0102 600.02 39.3439 599.772 43.4597C599.525 47.5754 599.277 52.6789 599.03 58.7702C598.782 64.8615 598.576 72.1051 598.411 80.5012C598.328 88.8973 598.328 98.6927 598.411 109.888L594.822 110.134L547.296 36.6687Z" fill="white"/>
<path d="M156.484 60.614C156.484 69.9245 152.513 77.472 147.613 77.472C142.713 77.472 138.742 69.9245 138.742 60.614C138.742 51.3036 142.713 43.756 147.613 43.756C152.513 43.756 156.484 51.3036 156.484 60.614Z" fill="white"/>
<path d="M210.37 56.0189C212.308 65.4831 209.802 73.9861 204.773 75.0109C199.744 76.0357 194.096 69.1942 192.159 59.7301C190.221 50.2659 192.727 41.7629 197.756 40.7381C202.785 39.7133 208.433 46.5548 210.37 56.0189Z" fill="white"/>
<path d="M47.5354 79.2665C44.235 87.5803 40.9759 94.0008 37.758 98.5281C34.5402 103.055 31.4048 106.101 28.3519 107.665C25.2991 109.147 22.4112 109.311 19.6884 108.159C16.9656 107.007 14.4491 104.908 12.1388 101.862C9.91104 98.7339 7.97206 94.824 6.32187 90.132C4.75419 85.4401 3.47529 80.2954 2.48517 74.698C1.57757 69.1007 1.08251 63.2563 1 57.165C1 50.9914 1.49506 44.9413 2.48517 39.0147L7.31199 39.5086C6.40438 50.0448 6.28062 59.2229 6.94069 67.0428C7.68328 74.7804 8.83841 81.2421 10.4061 86.4279C11.9738 91.6137 13.789 95.5648 15.8517 98.2812C17.9145 100.998 19.8947 102.562 21.7924 102.973C24.5977 102.973 27.073 102.232 29.2183 100.751C31.446 99.269 33.385 97.3346 35.0352 94.9474C36.7679 92.5603 38.2118 89.8439 39.367 86.7983C40.6046 83.7527 41.5947 80.6659 42.3373 77.5379C43.0799 74.4099 43.6162 71.4055 43.9463 68.5245C44.2763 65.5611 44.4413 63.0094 44.4413 60.8692C44.4413 58.0705 44.3588 55.6011 44.1938 53.4609C44.0288 51.2384 43.74 49.0571 43.3274 46.9169C42.9974 44.7767 42.5848 42.5954 42.0898 40.3729C41.6772 38.0681 41.1822 35.434 40.6046 32.4707L46.6691 28.0257C48.5668 39.9613 50.1757 50.2095 51.4959 58.7702C52.8985 67.2486 54.0949 74.3688 55.085 80.1308C56.0752 85.8105 56.859 90.379 57.4366 93.8362C58.0141 97.2111 58.4679 99.8863 58.798 101.862C59.2105 103.755 59.4581 105.113 59.5406 105.936C59.7056 106.677 59.7881 107.295 59.7881 107.789H54.7138L47.5354 79.2665Z" stroke="white" stroke-width="2" mask="url(#path-4-outside-1_10534_66)"/>
<path d="M62.7584 43.0892L64.7387 36.6687C64.8212 36.5864 65.44 36.5041 66.5951 36.4218C67.8328 36.2571 69.4417 36.0925 71.422 35.9279C73.4022 35.6809 75.6299 35.434 78.1052 35.187C80.5805 34.9401 83.0971 34.6932 85.6549 34.4462C88.2952 34.1993 90.853 33.9523 93.3283 33.7054C95.8861 33.4584 98.2376 33.2115 100.383 32.9645C100.383 32.9645 100.754 32.9645 101.497 32.9645C102.239 32.9645 103.064 32.9645 103.972 32.9645C104.88 32.9645 105.746 32.9645 106.571 32.9645C107.396 32.9645 107.932 32.9645 108.18 32.9645C110.16 32.9645 111.522 33.335 112.264 34.0758C113.007 34.8166 113.378 36.4218 113.378 38.8912L90.853 41.4841C90.6879 46.6699 90.7705 52.1027 91.1005 57.7824C91.4305 63.4621 91.8431 69.2241 92.3381 75.0685C92.8332 80.8305 93.287 86.5513 93.6995 92.2311C94.1946 97.9108 94.4421 103.344 94.4421 108.529C94.4421 109.27 94.1946 109.805 93.6995 110.134C93.287 110.381 92.7507 110.546 92.0906 110.628C91.513 110.711 90.8942 110.67 90.2341 110.505C89.5741 110.423 88.9965 110.299 88.5014 110.134C88.2539 109.064 88.0064 107.212 87.7589 104.578C87.5113 101.944 87.2638 98.8574 87.0163 95.3179C86.7687 91.7783 86.5212 87.9507 86.2737 83.835C86.0262 79.7192 85.7786 75.6035 85.5311 71.4878C85.2836 67.372 85.036 63.4621 84.7885 59.7579C84.541 55.9715 84.3347 52.6789 84.1697 49.8802C84.0047 46.9992 83.8396 44.7767 83.6746 43.2127C83.5921 41.6487 83.5096 41.0725 83.4271 41.4841L62.7584 43.0892Z" stroke="white" stroke-width="2" mask="url(#path-4-outside-1_10534_66)"/>
<path d="M112.14 69.1418C112.14 66.4254 112.305 63.5444 112.636 60.4988C113.048 57.4531 113.667 54.4898 114.492 51.6088C115.4 48.6455 116.513 45.8468 117.834 43.2127C119.236 40.4963 120.886 38.1504 122.784 36.1748C124.764 34.117 127.033 32.5118 129.591 31.3594C132.232 30.1247 135.202 29.5073 138.502 29.5073C141.39 29.5073 143.948 30.3305 146.176 31.9768C148.403 33.5408 150.342 35.6398 151.993 38.2738C153.643 40.8256 155.004 43.7478 156.077 47.0403C157.149 50.3329 158.016 53.6667 158.676 57.0416C159.418 60.3341 159.914 63.5444 160.161 66.6724C160.409 69.718 160.532 72.3521 160.532 74.5746C160.202 79.4311 159.501 83.9173 158.428 88.033C157.356 92.0664 155.871 95.6471 153.973 98.7751C152.158 101.821 149.889 104.331 147.166 106.307C144.443 108.282 141.143 109.599 137.265 110.258C133.552 110.258 130.375 109.599 127.735 108.282C125.094 106.965 122.825 105.237 120.928 103.097C119.03 100.956 117.504 98.487 116.348 95.6883C115.193 92.8896 114.286 89.9674 113.626 86.9218C113.048 83.8761 112.636 80.8305 112.388 77.7848C112.223 74.6569 112.14 71.7759 112.14 69.1418ZM116.843 69.1418C116.843 71.1174 116.885 73.3399 116.967 75.8093C117.05 78.2787 117.256 80.7893 117.586 83.3411C117.999 85.8105 118.576 88.28 119.319 90.7494C120.061 93.1365 121.051 95.2767 122.289 97.1699C123.609 98.9808 125.218 100.463 127.116 101.615C129.096 102.767 131.448 103.344 134.171 103.344C138.131 103.59 141.39 103.097 143.948 101.862C146.506 100.627 148.568 98.7339 150.136 96.1822C151.704 93.6304 152.9 90.5436 153.725 86.9218C154.55 83.2999 155.21 79.1842 155.706 74.5746C155.706 72.7637 155.623 70.5 155.458 67.7836C155.293 65.0672 154.963 62.2274 154.468 59.2641C154.055 56.3007 153.437 53.3374 152.611 50.3741C151.869 47.3284 150.837 44.6121 149.517 42.2249C148.28 39.7555 146.753 37.78 144.938 36.2983C143.205 34.8166 141.101 34.0758 138.626 34.0758C136.068 34.0758 133.758 34.6932 131.695 35.9279C129.632 37.0803 127.776 38.6443 126.126 40.6198C124.558 42.513 123.155 44.6944 121.918 47.1638C120.763 49.6333 119.814 52.185 119.071 54.8191C118.329 57.3708 117.751 59.9226 117.339 62.4743C117.009 64.9438 116.843 67.1663 116.843 69.1418Z" stroke="white" stroke-width="2" mask="url(#path-4-outside-1_10534_66)"/>
<path d="M166.844 69.1418C166.844 66.4254 167.009 63.5444 167.339 60.4988C167.752 57.4531 168.371 54.4898 169.196 51.6088C170.103 48.6455 171.217 45.8468 172.537 43.2127C173.94 40.4963 175.59 38.1504 177.488 36.1748C179.468 34.117 181.737 32.5118 184.295 31.3594C186.935 30.1247 189.906 29.5073 193.206 29.5073C196.094 29.5073 198.652 30.3305 200.88 31.9768C203.107 33.5408 205.046 35.6398 206.696 38.2738C208.347 40.8256 209.708 43.7478 210.781 47.0403C211.853 50.3329 212.72 53.6667 213.38 57.0416C214.122 60.3341 214.617 63.5444 214.865 66.6724C215.112 69.718 215.236 72.3521 215.236 74.5746C214.906 79.4311 214.205 83.9173 213.132 88.033C212.06 92.0664 210.574 95.6471 208.677 98.7751C206.861 101.821 204.592 104.331 201.87 106.307C199.147 108.282 195.846 109.599 191.968 110.258C188.256 110.258 185.079 109.599 182.439 108.282C179.798 106.965 177.529 105.237 175.632 103.097C173.734 100.956 172.207 98.487 171.052 95.6883C169.897 92.8896 168.99 89.9674 168.329 86.9218C167.752 83.8761 167.339 80.8305 167.092 77.7848C166.927 74.6569 166.844 71.7759 166.844 69.1418ZM171.547 69.1418C171.547 71.1174 171.589 73.3399 171.671 75.8093C171.754 78.2787 171.96 80.7893 172.29 83.3411C172.702 85.8105 173.28 88.28 174.023 90.7494C174.765 93.1365 175.755 95.2767 176.993 97.1699C178.313 98.9808 179.922 100.463 181.82 101.615C183.8 102.767 186.152 103.344 188.874 103.344C192.835 103.59 196.094 103.097 198.652 101.862C201.21 100.627 203.272 98.7339 204.84 96.1822C206.408 93.6304 207.604 90.5436 208.429 86.9218C209.254 83.2999 209.914 79.1842 210.409 74.5746C210.409 72.7637 210.327 70.5 210.162 67.7836C209.997 65.0672 209.667 62.2274 209.172 59.2641C208.759 56.3007 208.14 53.3374 207.315 50.3741C206.573 47.3284 205.541 44.6121 204.221 42.2249C202.984 39.7555 201.457 37.78 199.642 36.2983C197.909 34.8166 195.805 34.0758 193.33 34.0758C190.772 34.0758 188.462 34.6932 186.399 35.9279C184.336 37.0803 182.48 38.6443 180.83 40.6198C179.262 42.513 177.859 44.6944 176.622 47.1638C175.467 49.6333 174.518 52.185 173.775 54.8191C173.033 57.3708 172.455 59.9226 172.042 62.4743C171.712 64.9438 171.547 67.1663 171.547 69.1418Z" stroke="white" stroke-width="2" mask="url(#path-4-outside-1_10534_66)"/>
<path d="M271.549 48.522C271.384 48.3574 271.178 48.0693 270.93 47.6577C270.683 47.2461 270.435 46.7934 270.188 46.2995C269.94 45.7233 269.693 45.2294 269.445 44.8178C269.28 44.324 269.197 43.9535 269.197 43.7066C269.197 42.9658 269.528 42.3896 270.188 41.978C270.848 41.5664 271.59 41.3195 272.415 41.2372C273.24 41.1548 274.024 41.1137 274.767 41.1137C275.592 41.1137 276.087 41.1137 276.252 41.1137C276.5 41.1137 276.83 41.1548 277.242 41.2372C277.737 41.2372 278.232 41.2783 278.727 41.3606C279.305 41.3606 279.8 41.4018 280.213 41.4841C280.625 41.4841 280.914 41.4841 281.079 41.4841C283.802 42.4719 286.896 43.6243 290.361 44.9413C293.909 46.2584 297.54 47.7812 301.252 49.5098C304.965 51.2384 308.596 53.2139 312.144 55.4364C315.692 57.5766 318.868 60.046 321.674 62.8447C324.479 65.5611 326.748 68.5656 328.481 71.8582C330.213 75.1508 331.08 78.8138 331.08 82.8472C331.08 86.3044 330.42 89.4324 329.099 92.2311C327.779 94.9474 326.005 97.3346 323.778 99.3924C321.632 101.368 319.116 103.097 316.228 104.578C313.34 105.978 310.37 107.13 307.317 108.035C304.347 108.859 301.335 109.476 298.282 109.888C295.229 110.299 292.383 110.505 289.742 110.505C289.165 110.505 288.175 110.464 286.772 110.381C285.369 110.381 283.925 110.34 282.44 110.258C280.955 110.176 279.594 110.134 278.356 110.134C277.201 110.052 276.582 110.011 276.5 110.011L276.252 105.443L271.549 48.522ZM278.604 47.9046C278.604 48.0693 278.604 48.3985 278.604 48.8924C278.604 49.3863 278.604 49.9625 278.604 50.621C278.686 51.1972 278.727 51.7323 278.727 52.2262C278.727 52.72 278.727 53.0905 278.727 53.3374C278.81 54.5721 278.892 56.5477 278.975 59.2641C279.14 61.9804 279.264 65.0672 279.346 68.5245C279.511 71.9817 279.676 75.6035 279.841 79.39C280.089 83.0941 280.295 86.6748 280.46 90.132C280.625 93.5069 280.749 96.5937 280.831 99.3924C280.996 102.109 281.079 104.126 281.079 105.443C281.574 105.443 282.358 105.484 283.43 105.566C284.586 105.566 285.782 105.607 287.02 105.689C288.257 105.689 289.412 105.731 290.485 105.813C291.64 105.813 292.465 105.813 292.96 105.813C296.756 105.813 300.51 105.36 304.223 104.455C307.936 103.467 311.236 102.026 314.124 100.133C317.094 98.1577 319.487 95.6471 321.302 92.6015C323.2 89.4735 324.149 85.7282 324.149 81.3655C324.149 78.1553 323.406 75.1096 321.921 72.2286C320.436 69.2653 318.456 66.5489 315.98 64.0795C313.588 61.61 310.824 59.3875 307.688 57.412C304.553 55.4364 301.294 53.749 297.911 52.3496C294.61 50.868 291.269 49.7567 287.886 49.0159C284.586 48.2751 281.491 47.9046 278.604 47.9046Z" stroke="white" stroke-width="2" mask="url(#path-4-outside-1_10534_66)"/>
<path d="M335.164 43.7066C336.484 41.8134 338.217 40.2082 340.362 38.8912C342.59 37.4919 345.024 36.3394 347.664 35.434C350.387 34.5285 353.275 33.8289 356.328 33.335C359.463 32.8411 362.516 32.4707 365.486 32.2237C368.457 31.9768 371.344 31.8121 374.15 31.7298C376.955 31.6475 379.43 31.6064 381.576 31.6064C381.741 31.6064 382.112 31.6475 382.689 31.7298C383.267 31.7298 383.886 31.771 384.546 31.8533C385.206 31.8533 385.784 31.8533 386.279 31.8533C386.856 31.8533 387.269 31.8533 387.516 31.8533C387.846 33.6642 387.64 34.9401 386.897 35.6809C386.237 36.3394 385.33 36.751 384.175 36.9156C383.102 36.998 381.947 36.9568 380.709 36.7922C379.472 36.5452 378.564 36.5041 377.986 36.6687C377.161 36.751 375.841 36.998 374.026 37.4095C372.293 37.7388 370.354 38.1504 368.209 38.6443C366.064 39.0558 363.753 39.5497 361.278 40.1259C358.885 40.6198 356.575 41.1137 354.347 41.6076C352.202 42.0192 350.263 42.4307 348.53 42.8423C346.798 43.2539 345.519 43.542 344.694 43.7066C343.374 44.2005 342.631 44.8178 342.466 45.5587C342.301 46.2995 342.218 47.1638 342.218 48.1516C342.218 49.8802 342.301 51.8146 342.466 53.9548C342.714 56.0949 342.961 58.2351 343.209 60.3753C343.539 62.4332 343.827 64.3264 344.075 66.055C344.405 67.7836 344.611 69.0595 344.694 69.8826C345.024 69.965 345.643 70.0061 346.55 70.0061C347.458 70.0061 348.077 70.0061 348.407 70.0061C350.304 70.0061 352.161 69.8415 353.976 69.5122C355.791 69.183 357.607 68.8126 359.422 68.401C361.237 67.9894 363.093 67.6601 364.991 67.4132C366.889 67.0839 368.828 66.9193 370.808 66.9193V71.4878C369.983 71.4878 368.828 71.5701 367.343 71.7347C365.857 71.817 364.207 72.0228 362.392 72.3521C360.659 72.6813 358.885 73.0518 357.07 73.4633C355.255 73.7926 353.605 74.163 352.12 74.5746C350.634 74.9861 349.397 75.3977 348.407 75.8093C347.499 76.2209 347.045 76.6324 347.045 77.044V102.726C350.923 102.726 354.76 102.603 358.555 102.356C362.433 102.109 366.311 101.862 370.189 101.615C374.067 101.286 377.945 100.998 381.823 100.751C385.701 100.504 389.579 100.38 393.457 100.38C393.457 101.368 393.127 102.191 392.467 102.85C391.807 103.426 391.023 103.92 390.115 104.331C389.29 104.661 388.383 104.908 387.393 105.072C386.402 105.237 385.66 105.36 385.165 105.443C384.835 105.525 383.803 105.648 382.071 105.813C380.338 105.978 378.193 106.225 375.635 106.554C373.077 106.883 370.231 107.212 367.095 107.542C363.96 107.871 360.866 108.2 357.813 108.529C354.76 108.859 351.872 109.188 349.149 109.517C346.426 109.764 344.157 109.97 342.342 110.134C342.095 110.217 341.723 110.258 341.228 110.258C341.228 99.2278 340.857 88.1153 340.114 76.9205C339.454 65.6434 337.804 54.5721 335.164 43.7066Z" stroke="white" stroke-width="2" mask="url(#path-4-outside-1_10534_66)"/>
<path d="M402.368 100.751C402.781 99.7628 403.399 99.1455 404.224 98.8985C405.132 98.6516 406.081 99.269 407.071 100.751C407.071 100.915 407.442 101.162 408.185 101.491C409.01 101.738 410 102.068 411.155 102.479C412.393 102.808 413.796 103.179 415.363 103.59C417.013 103.92 418.622 104.249 420.19 104.578C421.758 104.825 423.284 105.072 424.769 105.319C426.255 105.484 427.533 105.566 428.606 105.566C431.411 105.566 433.969 104.99 436.279 103.837C438.672 102.603 440.694 101.039 442.344 99.1455C444.077 97.2522 445.397 95.1121 446.304 92.7249C447.212 90.2555 447.666 87.7449 447.666 85.1932C447.666 84.4523 447.542 83.1764 447.294 81.3655C447.047 79.4723 446.634 77.6202 446.057 75.8093C445.479 73.9161 444.695 72.2286 443.705 70.7469C442.798 69.2653 441.684 68.5245 440.364 68.5245C431.783 69.5122 424.728 69.9238 419.2 69.7592C413.754 69.5122 409.423 68.8537 406.205 67.7836C402.987 66.7135 400.718 65.273 399.398 63.4621C398.16 61.5689 397.5 59.4287 397.417 57.0416C397.417 54.0782 398.16 51.2384 399.645 48.522C401.13 45.7233 403.028 43.2539 405.338 41.1137C407.649 38.9735 410.206 37.2861 413.012 36.0513C415.9 34.7343 418.746 34.0758 421.551 34.0758C423.862 34.0758 426.255 34.3639 428.73 34.9401C431.288 35.5163 433.639 36.4218 435.784 37.6565C437.93 38.8089 439.662 40.3729 440.982 42.3484C442.385 44.2416 443.086 46.5465 443.086 49.2628C441.106 49.2628 439.291 48.7278 437.641 47.6577C435.991 46.5053 434.34 45.3117 432.69 44.077C431.04 42.8423 429.307 41.6899 427.492 40.6198C425.677 39.4674 423.573 38.8912 421.18 38.8912C419.2 38.8912 417.178 39.3851 415.116 40.3729C413.136 41.3606 411.32 42.6365 409.67 44.2005C408.102 45.7645 406.782 47.5342 405.71 49.5098C404.72 51.403 404.224 53.3786 404.224 55.4364C404.224 56.2596 404.224 57.165 404.224 58.1528C404.307 59.0583 404.513 59.9637 404.843 60.8692C405.173 61.6923 405.668 62.392 406.328 62.9682C407.071 63.5444 408.102 63.8325 409.423 63.8325H442.715C444.118 63.8325 445.314 64.2852 446.304 65.1907C447.377 66.0139 448.243 67.0839 448.903 68.401C449.646 69.718 450.224 71.1997 450.636 72.846C451.131 74.4923 451.502 76.0974 451.75 77.6614C452.08 79.2253 452.286 80.707 452.369 82.1064C452.451 83.4234 452.493 84.4523 452.493 85.1932C452.493 88.4034 452.039 91.4491 451.131 94.3301C450.224 97.1288 448.862 99.6805 447.047 101.985C445.232 104.208 442.963 106.06 440.24 107.542C437.517 108.941 434.382 109.805 430.834 110.134C429.101 110.299 426.832 110.258 424.027 110.011C421.304 109.764 418.54 109.311 415.735 108.653C412.929 107.912 410.289 106.924 407.814 105.689C405.338 104.372 403.523 102.726 402.368 100.751Z" stroke="white" stroke-width="2" mask="url(#path-4-outside-1_10534_66)"/>
<path d="M458.186 23.3337C458.186 22.346 458.516 21.564 459.176 20.9878C459.918 20.3293 460.785 20 461.775 20C461.857 20 462.064 20 462.394 20C462.724 20 462.93 20 463.013 20C463.425 26.9144 463.796 33.4996 464.126 39.7555C464.456 45.9291 464.704 52.0204 464.869 58.0293C465.117 64.0383 465.282 70.0473 465.364 76.0562C465.447 81.9829 465.488 88.1976 465.488 94.7005C465.488 95.606 465.529 96.8407 465.612 98.4046C465.777 99.9686 465.9 101.491 465.983 102.973C466.148 104.455 466.272 105.813 466.354 107.048C466.519 108.2 466.602 108.817 466.602 108.9L461.28 109.888C461.115 106.513 460.95 102.644 460.785 98.2812C460.62 93.8362 460.455 89.1443 460.29 84.2054C460.207 79.1842 460.083 74.0395 459.918 68.7714C459.836 63.4209 459.671 58.1528 459.423 52.967C459.258 47.7812 459.052 42.8011 458.805 38.0269C458.64 33.1703 458.433 28.7665 458.186 24.8154V23.3337Z" stroke="white" stroke-width="2" mask="url(#path-4-outside-1_10534_66)"/>
<path d="M528.236 101.985C525.019 103.632 522.172 104.949 519.697 105.936C517.221 106.924 514.829 107.706 512.518 108.282C510.208 108.776 507.857 109.106 505.464 109.27C503.153 109.435 500.472 109.517 497.419 109.517C493.376 109.517 489.746 109.064 486.528 108.159C483.31 107.171 480.546 105.731 478.236 103.837C476.008 101.862 474.275 99.3924 473.037 96.4291C471.8 93.3835 471.181 89.7205 471.181 85.4401C471.181 81.5713 471.552 77.4967 472.295 73.2164C473.12 68.936 474.275 64.6968 475.76 60.4988C477.328 56.2184 479.226 52.1438 481.453 48.2751C483.764 44.324 486.445 40.8667 489.498 37.9034C492.551 34.9401 495.975 32.5941 499.771 30.8655C503.566 29.0546 507.774 28.1491 512.395 28.1491C514.127 28.1491 516.19 28.3549 518.583 28.7665C520.976 29.0958 523.245 29.7131 525.39 30.6186C527.618 31.4417 529.474 32.6764 530.959 34.3227C532.444 35.8867 533.187 37.9034 533.187 40.3729C533.187 41.2783 532.733 41.7311 531.826 41.7311C531 41.6487 529.928 41.3195 528.608 40.7433C527.37 40.1671 525.926 39.4262 524.276 38.5208C522.708 37.6153 521.182 36.751 519.697 35.9279C518.211 35.1047 516.85 34.4051 515.612 33.8289C514.375 33.2526 513.426 33.0469 512.766 33.2115C508.805 33.2115 505.216 33.9935 501.998 35.5575C498.78 37.0391 495.851 39.0558 493.211 41.6076C490.653 44.1593 488.384 47.1227 486.404 50.4976C484.506 53.7901 482.897 57.2474 481.577 60.8692C480.34 64.491 479.391 68.1129 478.731 71.7347C478.153 75.2742 477.864 78.6491 477.864 81.8594C477.287 85.7282 477.493 89.1031 478.483 91.9841C479.556 94.7828 481.123 97.1288 483.186 99.022C485.249 100.833 487.724 102.191 490.612 103.097C493.5 104.002 496.47 104.537 499.523 104.702C502.658 104.784 505.753 104.496 508.805 103.837C511.858 103.097 514.622 102.026 517.098 100.627C519.655 99.2278 521.718 97.4992 523.286 95.4413C524.936 93.3835 525.885 91.0786 526.132 88.5269C526.132 85.8928 525.596 83.6703 524.523 81.8594C523.533 80.0485 522.172 78.5257 520.439 77.291C518.789 76.0562 516.85 75.0685 514.622 74.3276C512.477 73.5868 510.249 73.0106 507.939 72.599C505.711 72.1875 503.442 71.8993 501.132 71.7347C498.904 71.5701 496.841 71.3643 494.944 71.1174V68.8949C494.944 68.7302 496.016 68.4421 498.162 68.0306C500.389 67.619 502.988 67.1663 505.959 66.6724C509.012 66.1785 512.147 65.6846 515.365 65.1907C518.583 64.6968 521.306 64.3264 523.533 64.0795C523.533 64.0795 523.74 64.0795 524.152 64.0795C524.565 63.9971 525.019 63.956 525.514 63.956C526.009 63.956 526.504 63.956 526.999 63.956C527.494 63.956 527.906 63.956 528.236 63.956C528.401 63.956 528.69 63.956 529.103 63.956C529.598 63.956 530.093 63.956 530.588 63.956C531.083 63.956 531.537 63.9971 531.949 64.0795C532.444 64.0795 532.774 64.0795 532.939 64.0795C533.022 65.2319 533.104 67.0839 533.187 69.6357C533.352 72.1051 533.517 74.9038 533.682 78.0318C533.847 81.0774 534.012 84.3289 534.177 87.7861C534.342 91.2433 534.507 94.5359 534.672 97.6638C534.837 100.709 534.961 103.467 535.043 105.936C535.208 108.406 535.332 110.258 535.415 111.493C535.415 111.822 535.415 112.439 535.415 113.345C535.415 114.25 535.415 115.197 535.415 116.185C535.497 117.255 535.539 118.201 535.539 119.024C535.539 119.93 535.539 120.588 535.539 121H532.939L528.236 101.985ZM528.236 75.9328V68.401C526.999 68.401 525.72 68.7302 524.4 69.3888C523.08 69.965 521.966 70.5412 521.058 71.1174L528.236 75.9328Z" stroke="white" stroke-width="2" mask="url(#path-4-outside-1_10534_66)"/>
<path d="M547.296 36.6687C547.296 36.9156 547.255 37.4507 547.172 38.2738C547.172 39.097 547.172 39.9613 547.172 40.8667C547.172 41.6899 547.172 42.513 547.172 43.3362C547.172 44.077 547.172 44.5709 547.172 44.8178C547.172 50.1683 547.296 55.5187 547.544 60.8692C547.791 66.2196 548.08 71.6112 548.41 77.044C548.74 82.3945 549.029 87.7861 549.276 93.2188C549.524 98.6516 549.648 104.084 549.648 109.517L545.192 109.27C545.11 107.706 544.945 105.525 544.697 102.726C544.532 99.9275 544.285 96.7172 543.954 93.0954C543.707 89.3912 543.418 85.4401 543.088 81.2421C542.758 77.044 542.387 72.8048 541.974 68.5245C541.644 64.1618 541.355 59.8814 541.108 55.6834C540.86 51.4853 540.613 47.6165 540.365 44.077C540.2 40.4552 540.077 37.2861 539.994 34.5697C539.912 31.771 539.912 29.6308 539.994 28.1491C539.994 27.1614 540.365 26.3382 541.108 25.6797C541.85 25.0212 542.717 24.6919 543.707 24.6919C544.697 24.6919 545.811 24.9389 547.049 25.4328C548.369 25.8443 549.235 26.4205 549.648 27.1614L594.203 98.8985C594.203 95.1121 594.079 91.0375 593.832 86.6748C593.667 82.3121 593.502 77.826 593.336 73.2164C593.171 68.6068 593.048 63.9971 592.965 59.3875C592.965 54.6956 593.048 50.1683 593.213 45.8056C593.46 41.3606 593.873 37.1626 594.45 33.2115C595.11 29.2604 596.018 25.6797 597.173 22.4694C598.328 22.0579 599.236 21.8521 599.896 21.8521C600.556 21.7698 601.051 21.7698 601.381 21.8521C601.711 21.9344 601.876 22.1402 601.876 22.4694C601.959 22.7987 602 23.128 602 23.4572C602 23.6218 602 23.8688 602 24.198C602 24.5273 602 24.7331 602 24.8154C601.835 25.3093 601.629 26.2148 601.381 27.5318C601.216 28.8488 600.969 30.8244 600.639 33.4584C600.309 36.0102 600.02 39.3439 599.772 43.4597C599.525 47.5754 599.277 52.6789 599.03 58.7702C598.782 64.8615 598.576 72.1051 598.411 80.5012C598.328 88.8973 598.328 98.6927 598.411 109.888L594.822 110.134L547.296 36.6687Z" stroke="white" stroke-width="2" mask="url(#path-4-outside-1_10534_66)"/>
<path d="M156.484 60.614C156.484 69.9245 152.513 77.472 147.613 77.472C142.713 77.472 138.742 69.9245 138.742 60.614C138.742 51.3036 142.713 43.756 147.613 43.756C152.513 43.756 156.484 51.3036 156.484 60.614Z" stroke="white" stroke-width="2" mask="url(#path-4-outside-1_10534_66)"/>
<path d="M210.37 56.0189C212.308 65.4831 209.802 73.9861 204.773 75.0109C199.744 76.0357 194.096 69.1942 192.159 59.7301C190.221 50.2659 192.727 41.7629 197.756 40.7381C202.785 39.7133 208.433 46.5548 210.37 56.0189Z" stroke="white" stroke-width="2" mask="url(#path-4-outside-1_10534_66)"/>
</svg>
