<svg width="316" height="469" viewBox="0 0 316 469" fill="none" xmlns="http://www.w3.org/2000/svg">
<path d="M286.338 213.877C288.128 210.668 292.041 209.188 295.552 210.557C299.4 212.055 301.307 216.403 299.815 220.267L299.613 220.79L299.336 221.277C298.763 222.284 298.105 223.433 296.729 225.273C295.212 227.302 293.126 229.73 285.086 237.361C277.022 245.019 262.903 257.977 248.604 268.845C234.278 279.732 220.272 288.207 210.162 293.459C200.21 298.626 193.671 301.269 186.373 302.269C174.488 303.899 164.449 304.745 156.632 303.141C147.796 301.325 137.593 298.821 127.389 296.136C123.399 295.087 121.012 290.983 122.057 286.976C123.103 282.967 127.185 280.566 131.176 281.616C141.259 284.27 151.167 286.699 159.625 288.435C164.618 289.461 172.264 289.057 184.351 287.399C189.061 286.753 193.761 285.08 203.302 280.124C212.687 275.251 225.97 267.227 239.591 256.876C253.238 246.503 266.892 233.986 274.826 226.453C282.784 218.899 284.081 217.202 284.788 216.256C285.241 215.65 285.527 215.224 285.736 214.896C285.943 214.571 286.103 214.292 286.338 213.877Z" fill="white"/>
<path d="M285.661 213.056C287.77 209.651 292.054 208.12 295.915 209.625L296.318 209.794C300.41 211.633 302.384 216.389 300.748 220.627V220.628L300.546 221.15L300.52 221.22L300.483 221.285L300.205 221.771L300.204 221.77C299.621 222.796 298.941 223.985 297.53 225.872C295.958 227.973 293.82 230.45 285.775 238.087C277.702 245.752 263.552 258.74 249.208 269.641C234.836 280.564 220.781 289.069 210.623 294.347C200.644 299.528 193.981 302.235 186.509 303.26C174.637 304.888 164.437 305.763 156.431 304.12C147.569 302.299 137.347 299.79 127.135 297.103C122.607 295.912 119.907 291.26 121.09 286.724C122.274 282.183 126.9 279.458 131.43 280.649C141.505 283.301 151.393 285.724 159.826 287.455H159.827C164.63 288.442 172.113 288.068 184.215 286.408C188.75 285.786 193.327 284.179 202.841 279.237C212.178 274.389 225.412 266.394 238.986 256.079C252.589 245.74 266.212 233.252 274.138 225.727C282.091 218.178 283.334 216.53 283.987 215.657L284.286 215.25C284.557 214.874 284.746 214.588 284.893 214.358C285.083 214.059 285.231 213.801 285.464 213.39L285.661 213.056ZM295.189 211.488C292.152 210.305 288.762 211.583 287.211 214.364L287.207 214.371C286.973 214.785 286.802 215.084 286.58 215.432L286.579 215.433C286.357 215.783 286.056 216.229 285.588 216.854C284.827 217.873 283.478 219.619 275.515 227.179C267.82 234.484 254.737 246.487 241.48 256.69L240.197 257.672C226.529 268.059 213.198 276.112 203.763 281.012C194.195 285.982 189.371 287.72 184.487 288.39C172.415 290.046 164.607 290.48 159.423 289.414C152 287.891 143.472 285.837 134.696 283.568L130.921 282.583C127.577 281.703 124.153 283.623 123.118 286.906L123.025 287.228C122.118 290.706 124.191 294.261 127.644 295.17C137.839 297.852 148.023 300.351 156.833 302.161C164.461 303.726 174.34 302.91 186.238 301.278L186.904 301.182C193.766 300.138 200.087 297.563 209.702 292.571C219.762 287.344 233.72 278.9 247.998 268.049C262.255 257.214 276.343 244.285 284.398 236.637C292.432 229.01 294.465 226.63 295.928 224.674C297.269 222.881 297.904 221.772 298.467 220.782L298.708 220.356L298.882 219.907L298.995 219.592C300.072 216.321 298.416 212.745 295.19 211.488H295.189Z" fill="white"/>
<path d="M21.3461 12.7441C23.1007 12.7441 24.4935 13.2307 25.8958 13.7399C27.4977 14.3215 30.3022 15.4227 35.4415 17.5158C45.7693 21.7222 65.9624 30.1227 86.712 38.7549C90.5547 40.3526 92.314 44.6287 90.6463 48.3058C88.9763 51.9831 84.5111 53.6689 80.6708 52.0712C59.8859 43.4254 39.7634 35.0553 29.506 30.8767C24.3503 28.7773 21.8018 27.7818 20.517 27.3154C20.3361 27.2491 20.1952 27.1998 20.0895 27.1631C16.5004 26.5893 13.764 23.6028 13.764 20.0037C13.764 15.9943 17.1581 12.7441 21.3461 12.7441Z" fill="white"/>
<path d="M21.3461 11.7441C23.293 11.7441 24.8324 12.2898 26.2367 12.7997C27.859 13.3888 30.6805 14.4971 35.8187 16.5898C46.151 20.798 66.3486 29.2007 87.0961 37.832L87.4955 38.0097C91.5564 39.9385 93.41 44.6329 91.557 48.7187V48.7197C89.6529 52.9121 84.6007 54.7889 80.2865 52.9941C59.4996 44.3474 39.3813 35.9795 29.1283 31.8027V31.8017C23.9727 29.7023 21.4406 28.7149 20.1761 28.2558L20.1732 28.2548C20.0336 28.2037 19.9185 28.1632 19.8256 28.1308C15.843 27.444 12.7641 24.0974 12.764 20.0038C12.764 15.4017 16.6472 11.7441 21.3461 11.7441ZM14.764 20.0038C14.7641 22.9762 16.9598 25.5097 19.9554 26.122L20.2474 26.1757L20.3344 26.1894L20.4174 26.2187C20.5256 26.2562 20.6714 26.3067 20.8578 26.3749C21.8367 26.7304 23.5247 27.3836 26.4818 28.5732L29.8832 29.9501C40.1449 34.1305 60.2723 42.5034 81.0551 51.1484C84.4213 52.5486 88.2997 51.0543 89.7357 47.8925L89.8607 47.5976C91.0641 44.5285 89.5719 41.0274 86.3285 39.6786H86.3275C65.5758 31.0456 45.3873 22.6469 35.0638 18.4423C29.9237 16.3488 27.1355 15.2538 25.5541 14.6796C24.1541 14.1713 22.908 13.7441 21.3461 13.7441C17.669 13.7441 14.764 16.5872 14.764 20.0038Z" fill="white"/>
<path d="M305.988 1.07455C310.024 0.501032 313.765 3.29075 314.341 7.30515C314.916 11.3195 312.114 15.0388 308.077 15.6123C307.609 15.6788 307.236 15.6556 282.185 21.9734C257.487 28.2024 210.318 40.2001 184.833 46.3414C172.137 49.401 164.163 51.1826 159.411 52.0213C157.185 52.4141 155.085 52.7119 153.429 52.6706C152.961 52.6588 152.327 52.6177 151.623 52.4744C150.995 52.3466 149.79 52.0375 148.56 51.1772C147.129 50.1787 145.722 48.448 145.377 46.0301C145.072 43.9091 145.739 42.2603 146.147 41.4574L146.387 40.9884C148.912 36.1312 152.496 30.8898 155.442 26.7929C156.985 24.6451 158.42 22.7191 159.496 21.2688C160.757 19.5667 161.168 18.9772 161.166 18.9838C163.184 15.4612 167.693 14.2337 171.235 16.2424C174.777 18.2511 176.011 22.7353 173.991 26.2581C173.446 27.2112 172.295 28.7502 171.381 29.9829C170.279 31.4704 168.919 33.2933 167.454 35.3328L167.449 35.3387C171.195 34.4898 175.778 33.4136 181.357 32.0693C206.74 25.9525 253.776 13.9882 278.556 7.73873C302.982 1.57833 304.504 1.28547 305.988 1.07455Z" fill="white"/>
<path d="M305.847 0.0847602C310.424 -0.565646 314.676 2.59725 315.331 7.16289C315.965 11.5861 312.993 15.6876 308.642 16.531L308.217 16.6023C307.819 16.6591 307.523 16.6145 282.43 22.9432C257.738 29.1708 210.559 41.1703 185.067 47.3133C172.375 50.3721 164.372 52.1607 159.586 53.0057H159.585C157.359 53.3981 155.171 53.7148 153.404 53.6707C152.901 53.6581 152.204 53.6127 151.423 53.4539H151.423C150.772 53.3213 149.541 53.0094 148.247 52.1717L147.987 51.9969C146.375 50.8718 144.779 48.9148 144.387 46.1726L144.335 45.7283C144.134 43.5395 144.827 41.8476 145.256 41.0037V41.0027L145.497 40.533L145.5 40.5271C148.06 35.6027 151.679 30.3125 154.63 26.2088C156.178 24.0537 157.619 22.1209 158.693 20.6727C159.321 19.8247 159.737 19.2551 159.995 18.8992C160.124 18.7213 160.213 18.5961 160.27 18.5164C160.298 18.478 160.32 18.4462 160.334 18.4275C160.335 18.4255 160.336 18.4229 160.338 18.4207C162.649 14.4688 167.733 13.1067 171.729 15.3728C175.75 17.6536 177.154 22.7485 174.858 26.7537C174.276 27.7725 173.077 29.374 172.184 30.5779C171.486 31.5202 170.689 32.5929 169.828 33.7674C173.037 33.027 176.777 32.1446 181.123 31.0975C206.5 24.9822 253.526 13.0202 278.312 6.76933C302.694 0.619983 304.295 0.305399 305.847 0.0847602ZM313.351 7.44706C312.855 3.98422 309.624 1.5679 306.13 2.06425C304.713 2.26546 303.267 2.53805 278.8 8.70878C254.026 14.9569 206.981 26.9233 181.59 33.0418C176.009 34.3866 171.422 35.4641 167.67 36.3143L164.868 36.949L166.646 34.741C168.115 32.6972 169.48 30.87 170.578 29.3875L171.298 28.4139C172.027 27.4247 172.742 26.4272 173.123 25.7615V25.7605C174.866 22.7206 173.804 18.8486 170.742 17.1121C167.676 15.3738 163.776 16.4391 162.034 19.4812L160.223 18.6502C160.213 18.6812 160.191 18.7642 160.18 18.8162C160.169 18.9117 160.191 19.2046 160.254 19.3924C160.45 19.6815 161.013 19.9715 161.306 19.9734C161.448 19.9428 161.649 19.859 161.713 19.8211C161.804 19.7612 161.865 19.6987 161.873 19.6912C161.893 19.6708 161.908 19.6536 161.916 19.6453C161.931 19.6282 161.942 19.6142 161.946 19.6092C161.951 19.6028 161.955 19.5975 161.958 19.5945L161.96 19.5926C161.946 19.6115 161.926 19.6381 161.896 19.6805C161.837 19.7626 161.746 19.8907 161.615 20.0721C161.352 20.4347 160.932 21.0105 160.299 21.8641V21.865C159.222 23.3173 157.791 25.2365 156.254 27.3768C153.314 31.4647 149.767 36.6542 147.277 41.4422L147.278 41.4432L147.038 41.91L147.039 41.9109C146.702 42.5723 146.174 43.873 146.327 45.5476L146.367 45.8875V45.8885C146.666 47.9813 147.883 49.4854 149.132 50.3572L149.334 50.493C150.336 51.1414 151.296 51.3878 151.822 51.4949L152.281 51.574C152.727 51.6391 153.13 51.6625 153.454 51.6707C154.999 51.7093 157.01 51.4298 159.238 51.0369C163.955 50.2042 171.901 48.4291 184.598 45.3689C210.076 39.2293 257.238 27.2341 281.941 21.0037C306.948 14.6968 307.4 14.6981 307.936 14.6219C311.431 14.1254 313.848 10.9098 313.351 7.44706Z" fill="white"/>
<path d="M0 161.054C0 154.674 0.387564 147.907 1.16503 140.753C2.13275 133.599 3.58667 126.639 5.52447 119.872C7.65722 112.912 10.2715 106.338 13.3743 100.151C16.6674 93.7704 20.543 88.2603 25.0011 83.6199C29.6518 78.7864 34.9813 75.0161 40.9896 72.3093C47.1929 69.4092 54.169 67.959 61.9202 67.959C68.7036 67.959 74.7119 69.8926 79.9452 73.7595C85.176 77.433 89.7304 82.3633 93.6084 88.5501C97.484 94.5439 100.681 101.408 103.201 109.141C105.719 116.875 107.755 124.706 109.306 132.633C111.049 140.366 112.214 147.907 112.794 155.254C113.376 162.408 113.665 168.595 113.665 173.815C112.89 185.222 111.243 195.759 108.723 205.427C106.205 214.9 102.717 223.311 98.2591 230.658C93.996 237.812 88.6664 243.708 82.2705 248.349C75.8746 252.988 68.1234 256.082 59.0146 257.63C50.2934 257.63 42.8311 256.082 36.6302 252.988C30.4269 249.895 25.0974 245.836 20.6416 240.81C16.1835 235.781 12.5992 229.981 9.88393 223.408C7.17101 216.834 5.04061 209.97 3.49038 202.817C2.13275 195.663 1.16503 188.509 0.582515 181.355C0.194956 174.008 0 167.241 0 161.054ZM11.0466 161.054C11.0466 165.695 11.1453 170.915 11.3379 176.715C11.5328 182.515 12.0167 188.412 12.7918 194.406C13.7619 200.206 15.1171 206.007 16.8623 211.807C18.6052 217.414 20.9305 222.441 23.8384 226.888C26.9389 231.141 30.7181 234.623 35.1762 237.329C39.8269 240.034 45.3514 241.39 51.7473 241.39C61.0488 241.967 68.7036 240.81 74.7119 237.909C80.7203 235.008 85.5636 230.561 89.2466 224.568C92.9296 218.574 95.7388 211.324 97.6766 202.817C99.6144 194.309 101.165 184.642 102.33 173.815C102.33 169.561 102.135 164.244 101.747 157.864C101.36 151.484 100.584 144.813 99.4218 137.853C98.4517 130.892 97.0001 123.932 95.0599 116.972C93.3171 109.818 90.8931 103.438 87.7926 97.8306C84.8871 92.0304 81.3005 87.3903 77.0373 83.91C72.9668 80.4297 68.0248 78.6897 62.2114 78.6897C56.2031 78.6897 50.7773 80.1398 45.9316 83.04C41.086 85.7468 36.7265 89.4204 32.8509 94.0605C29.1679 98.5073 25.8725 103.631 22.967 109.431C20.2541 115.232 18.025 121.225 16.2798 127.412C14.537 133.406 13.1793 139.4 12.2116 145.393C11.4365 151.194 11.0466 156.414 11.0466 161.054Z" fill="white"/>
<path d="M128.491 161.054C128.491 154.674 128.879 147.907 129.654 140.753C130.624 133.599 132.078 126.639 134.015 119.872C136.146 112.912 138.762 106.338 141.863 100.151C145.158 93.7704 149.034 88.2603 153.492 83.6199C158.143 78.7864 163.472 75.0161 169.481 72.3093C175.682 69.4092 182.66 67.959 190.411 67.959C197.195 67.959 203.203 69.8926 208.436 73.7595C213.667 77.433 218.221 82.3633 222.097 88.5501C225.975 94.5439 229.172 101.408 231.692 109.141C234.21 116.875 236.246 124.706 237.797 132.633C239.54 140.366 240.702 147.907 241.285 155.254C241.865 162.408 242.156 168.595 242.156 173.815C241.381 185.222 239.734 195.759 237.214 205.427C234.696 214.9 231.206 223.311 226.75 230.658C222.485 237.812 217.155 243.708 210.761 248.349C204.366 252.988 196.612 256.082 187.503 257.63C178.784 257.63 171.322 256.082 165.121 252.988C158.918 249.895 153.588 245.836 149.133 240.81C144.675 235.781 141.088 229.981 138.375 223.408C135.662 216.834 133.532 209.97 131.979 202.817C130.624 195.663 129.654 188.509 129.073 181.355C128.686 174.008 128.491 167.241 128.491 161.054ZM139.538 161.054C139.538 165.695 139.636 170.915 139.829 176.715C140.024 182.515 140.508 188.412 141.283 194.406C142.25 200.206 143.608 206.007 145.353 211.807C147.096 217.414 149.421 222.441 152.329 226.888C155.43 231.141 159.209 234.623 163.667 237.329C168.318 240.034 173.842 241.39 180.236 241.39C189.54 241.967 197.195 240.81 203.203 237.909C209.211 235.008 214.055 230.561 217.738 224.568C221.421 218.574 224.23 211.324 226.168 202.817C228.105 194.309 229.656 184.642 230.818 173.815C230.818 169.561 230.626 164.244 230.238 157.864C229.851 151.484 229.075 144.813 227.913 137.853C226.943 130.892 225.489 123.932 223.551 116.972C221.808 109.818 219.384 103.438 216.284 97.8306C213.378 92.0304 209.791 87.3903 205.528 83.91C201.458 80.4297 196.516 78.6897 190.702 78.6897C184.694 78.6897 179.268 80.1398 174.423 83.04C169.577 85.7468 165.217 89.4204 161.342 94.0605C157.659 98.5073 154.363 103.631 151.458 109.431C148.745 115.232 146.516 121.225 144.771 127.412C143.028 133.406 141.67 139.4 140.7 145.393C139.925 151.194 139.538 156.414 139.538 161.054Z" fill="white"/>
<path d="M104.157 141.024C104.157 162.892 94.8295 180.62 83.3202 180.62C71.8109 180.62 62.4836 162.892 62.4836 141.024C62.4836 119.155 71.8109 101.427 83.3202 101.427C94.8295 101.427 104.157 119.155 104.157 141.024Z" fill="white"/>
<path d="M230.727 130.23C235.279 152.46 229.392 172.433 217.58 174.84C205.768 177.247 192.502 161.177 187.952 138.947C183.4 116.718 189.286 96.7454 201.098 94.3383C212.911 91.9312 226.177 108.001 230.727 130.23Z" fill="white"/>
<path d="M289.19 430.072C288.914 429.038 288.914 428.246 289.19 427.694C289.534 427.074 289.982 426.626 290.534 426.351C291.085 426.075 291.705 425.937 292.394 425.937C293.083 425.868 293.704 425.834 294.255 425.834C294.737 425.834 295.323 425.868 296.012 425.937C296.701 425.937 297.322 426.075 297.873 426.351C298.424 426.626 298.838 427.074 299.113 427.694C299.389 428.246 299.389 429.038 299.113 430.072C299.044 430.554 298.838 431.037 298.493 431.519C298.149 431.932 297.735 432.346 297.253 432.759C296.839 433.173 296.357 433.517 295.806 433.793C295.254 434.069 294.737 434.207 294.255 434.207C293.704 434.207 293.152 434.069 292.601 433.793C292.05 433.517 291.533 433.173 291.051 432.759C290.568 432.346 290.155 431.932 289.81 431.519C289.534 431.037 289.328 430.554 289.19 430.072Z" fill="#888888"/>
<path d="M269.657 430.072C269.382 429.038 269.382 428.246 269.657 427.694C270.002 427.074 270.45 426.626 271.001 426.351C271.552 426.075 272.173 425.937 272.862 425.937C273.551 425.868 274.171 425.834 274.722 425.834C275.205 425.834 275.79 425.868 276.48 425.937C277.169 425.937 277.789 426.075 278.34 426.351C278.892 426.626 279.305 427.074 279.581 427.694C279.856 428.246 279.856 429.038 279.581 430.072C279.512 430.554 279.305 431.037 278.96 431.519C278.616 431.932 278.202 432.346 277.72 432.759C277.307 433.173 276.824 433.517 276.273 433.793C275.722 434.069 275.205 434.207 274.722 434.207C274.171 434.207 273.62 434.069 273.068 433.793C272.517 433.517 272 433.173 271.518 432.759C271.035 432.346 270.622 431.932 270.277 431.519C270.002 431.037 269.795 430.554 269.657 430.072Z" fill="#888888"/>
<path d="M250.125 430.072C249.849 429.038 249.849 428.246 250.125 427.694C250.469 427.074 250.917 426.626 251.468 426.351C252.02 426.075 252.64 425.937 253.329 425.937C254.018 425.868 254.638 425.834 255.19 425.834C255.672 425.834 256.258 425.868 256.947 425.937C257.636 425.937 258.256 426.075 258.808 426.351C259.359 426.626 259.772 427.074 260.048 427.694C260.324 428.246 260.324 429.038 260.048 430.072C259.979 430.554 259.772 431.037 259.428 431.519C259.083 431.932 258.67 432.346 258.187 432.759C257.774 433.173 257.292 433.517 256.74 433.793C256.189 434.069 255.672 434.207 255.19 434.207C254.638 434.207 254.087 434.069 253.536 433.793C252.984 433.517 252.468 433.173 251.985 432.759C251.503 432.346 251.089 431.932 250.745 431.519C250.469 431.037 250.262 430.554 250.125 430.072Z" fill="#888888"/>
<path d="M193.276 458.498C193.276 456.638 193.586 455.225 194.206 454.26C194.826 453.295 196.273 452.813 198.547 452.813C198.341 453.778 198.1 454.743 197.824 455.707C197.479 456.672 197.204 457.568 196.997 458.395C196.721 459.222 196.618 459.877 196.687 460.359C196.687 460.841 196.928 461.014 197.41 460.876C199.616 462.323 202.028 463.357 204.646 463.977C207.265 464.597 209.849 464.907 212.399 464.907C216.258 464.838 219.566 464.046 222.322 462.53C225.148 461.014 227.456 459.05 229.248 456.638C231.109 454.226 232.521 451.435 233.486 448.265C234.52 445.164 235.14 441.925 235.347 438.548C235.623 435.24 235.554 431.898 235.14 428.521C234.727 425.144 234.072 422.043 233.176 419.218C232.005 420.527 230.799 421.906 229.558 423.353C228.387 424.8 227.112 426.109 225.734 427.281C224.355 428.383 222.874 429.314 221.289 430.072C219.773 430.83 218.05 431.209 216.12 431.209C214.122 431.209 212.606 430.864 211.572 430.175C210.607 429.486 209.953 428.556 209.608 427.384C209.263 426.144 209.091 424.731 209.091 423.146C209.16 421.561 209.194 419.873 209.194 418.081C209.194 416.427 209.229 414.566 209.298 412.499C209.436 410.432 209.677 408.364 210.021 406.297C210.435 404.161 210.952 402.093 211.572 400.095C212.261 398.027 213.157 396.201 214.26 394.616C215.362 392.962 216.74 391.653 218.394 390.688C220.048 389.723 222.012 389.241 224.286 389.241C225.734 389.241 227.112 389.379 228.421 389.654C229.799 389.861 231.04 390.275 232.142 390.895C233.314 391.515 234.313 392.342 235.14 393.376C235.967 394.409 236.622 395.719 237.104 397.304C237.38 400.405 237.724 403.782 238.138 407.434C238.551 411.017 238.896 414.773 239.172 418.701C239.447 422.56 239.585 426.454 239.585 430.382C239.585 434.31 239.309 438.1 238.758 441.752C238.276 445.405 237.414 448.816 236.174 451.986C235.002 455.225 233.314 458.05 231.109 460.462C228.972 462.943 226.285 464.907 223.046 466.354C219.807 467.87 215.913 468.697 211.365 468.835C209.436 468.835 207.403 468.697 205.266 468.422C203.13 468.215 201.166 467.733 199.374 466.975C197.583 466.285 196.136 465.252 195.033 463.873C193.861 462.564 193.276 460.772 193.276 458.498ZM213.123 418.081C213.123 418.839 213.088 419.7 213.019 420.665C212.95 421.63 212.985 422.595 213.123 423.559C213.26 424.524 213.536 425.351 213.949 426.04C214.432 426.729 215.19 427.109 216.224 427.177C217.878 427.177 219.394 426.798 220.772 426.04C222.219 425.282 223.494 424.249 224.596 422.939C225.768 421.63 226.767 420.183 227.594 418.598C228.49 416.944 229.214 415.255 229.765 413.533C230.385 411.81 230.833 410.156 231.109 408.571C231.453 406.917 231.626 405.47 231.626 404.229C231.832 402.92 231.832 401.611 231.626 400.301C231.488 398.992 231.109 397.821 230.489 396.787C229.868 395.753 229.041 394.926 228.008 394.306C226.974 393.617 225.734 393.272 224.286 393.272C222.632 393.272 221.185 393.755 219.945 394.719C218.704 395.615 217.671 396.787 216.844 398.234C216.017 399.681 215.362 401.335 214.88 403.196C214.397 404.987 214.018 406.814 213.743 408.674C213.536 410.466 213.364 412.223 213.226 413.946C213.157 415.6 213.123 416.978 213.123 418.081Z" fill="#888888"/>
<path d="M163.303 433.483C163.165 432.38 163.027 430.795 162.889 428.728C162.82 426.592 162.717 424.214 162.579 421.596C162.51 418.908 162.441 416.117 162.372 413.223C162.303 410.328 162.235 407.572 162.166 404.953C162.097 402.334 161.993 399.991 161.856 397.924C161.787 395.788 161.649 394.168 161.442 393.066C161.442 392.997 161.408 392.824 161.339 392.549C161.339 392.273 161.304 391.963 161.235 391.618C161.235 391.274 161.235 390.998 161.235 390.791C161.235 390.516 161.235 390.309 161.235 390.171C162.269 389.344 163.13 389.069 163.82 389.344C164.578 389.62 165.198 390.24 165.68 391.205C166.163 392.101 166.507 393.238 166.714 394.616C166.921 395.994 167.058 397.373 167.127 398.751C167.265 400.129 167.334 401.404 167.334 402.576C167.334 403.678 167.334 404.471 167.334 404.953C167.472 403.782 167.679 402.403 167.954 400.818C168.23 399.233 168.643 397.614 169.195 395.96C169.746 394.306 170.401 392.687 171.159 391.102C171.986 389.448 172.985 388.001 174.156 386.76C175.328 385.52 176.637 384.555 178.085 383.866C179.601 383.177 181.323 382.901 183.253 383.039C186.285 383.177 188.766 384.004 190.696 385.52C192.694 387.036 194.245 389.069 195.347 391.618C196.519 394.168 197.346 397.097 197.828 400.405C198.379 403.713 198.724 407.227 198.862 410.948C199.068 414.67 199.137 418.46 199.068 422.319C199 426.109 198.965 429.762 198.965 433.276C198.345 433.414 197.725 433.655 197.104 434C196.484 434.275 195.967 434.379 195.554 434.31C195.14 434.31 194.83 434.034 194.624 433.483C194.486 432.863 194.555 431.691 194.83 429.968C194.899 428.728 195.003 426.833 195.14 424.283C195.347 421.664 195.416 418.77 195.347 415.6C195.347 412.43 195.175 409.157 194.83 405.78C194.486 402.403 193.831 399.337 192.866 396.58C191.97 393.755 190.661 391.481 188.938 389.758C187.215 387.966 184.976 387.07 182.219 387.07C179.394 388.242 177.016 390.447 175.087 393.686C173.226 396.925 171.71 400.715 170.539 405.056C169.436 409.398 168.609 414.118 168.058 419.218C167.575 424.249 167.3 429.176 167.231 434C167.093 433.931 166.817 433.896 166.404 433.896C166.059 433.896 165.646 433.896 165.163 433.896C164.75 433.828 164.336 433.759 163.923 433.69C163.578 433.621 163.372 433.552 163.303 433.483Z" fill="#888888"/>
<path d="M147.491 393.893C148.318 393.893 149.007 393.858 149.559 393.789C150.179 393.72 150.696 394.065 151.109 394.823C151.316 397.924 151.557 401.094 151.833 404.333C152.109 407.503 152.384 410.707 152.66 413.946C152.935 417.185 153.108 420.459 153.177 423.766C153.315 427.005 153.349 430.175 153.28 433.276C153.28 433.69 153.177 433.931 152.97 434C152.763 434.138 152.453 434.172 152.04 434.103C151.695 434.103 151.247 434.069 150.696 434C150.213 434 149.662 434.069 149.042 434.207L147.491 393.893ZM141.496 375.39C141.496 374.907 141.53 374.39 141.599 373.839C141.668 373.219 141.806 372.667 142.013 372.185C142.288 371.703 142.599 371.289 142.943 370.945C143.357 370.6 143.839 370.428 144.39 370.428C145.217 370.428 146.044 370.462 146.871 370.531C147.698 370.6 148.491 370.772 149.249 371.048C150.007 371.255 150.627 371.634 151.109 372.185C151.592 372.667 151.833 373.391 151.833 374.356C151.833 376.01 151.213 377.491 149.972 378.801C148.732 380.041 147.216 380.661 145.424 380.661C144.046 380.661 143.047 380.145 142.426 379.111C141.806 378.008 141.496 376.768 141.496 375.39ZM147.491 375.906C147.285 375.906 147.181 376.079 147.181 376.423C147.181 376.768 147.285 376.94 147.491 376.94C147.767 376.94 147.905 376.768 147.905 376.423C147.905 376.079 147.767 375.906 147.491 375.906Z" fill="#888888"/>
<path d="M102.116 419.011C102.116 417.151 102.426 415.118 103.047 412.912C103.667 410.638 104.563 408.571 105.734 406.71C106.906 404.781 108.318 403.196 109.972 401.955C111.626 400.715 113.556 400.095 115.761 400.095C117.415 400.095 118.862 400.267 120.103 400.612C121.412 400.887 122.618 401.404 123.721 402.162C124.892 402.851 125.96 403.713 126.925 404.746C127.959 405.711 129.027 406.848 130.129 408.157L129.509 355.129C131.37 354.44 132.507 354.164 132.92 354.302C133.403 354.44 133.644 355.026 133.644 356.059C133.644 356.197 133.609 356.404 133.541 356.68C133.541 356.955 133.541 357.128 133.541 357.196C133.472 358.506 133.403 360.366 133.334 362.778C133.334 365.19 133.334 367.981 133.334 371.151C133.403 374.321 133.472 377.767 133.541 381.488C133.609 385.141 133.678 388.862 133.747 392.652C133.816 396.373 133.885 400.095 133.954 403.816C134.092 407.468 134.161 410.88 134.161 414.05C134.23 417.22 134.23 420.045 134.161 422.526C134.161 424.938 134.126 426.764 134.057 428.004C133.299 429.589 132.231 430.795 130.853 431.622C129.544 432.449 128.096 433.069 126.511 433.483C124.995 433.827 123.41 434.034 121.756 434.103C120.103 434.172 118.552 434.207 117.105 434.207C112.488 434.207 108.835 432.863 106.148 430.175C103.46 427.419 102.116 423.697 102.116 419.011ZM106.251 416.22C106.251 417.943 106.389 419.666 106.665 421.389C106.94 423.043 107.423 424.524 108.112 425.834C108.801 427.143 109.766 428.211 111.006 429.038C112.247 429.796 113.832 430.175 115.761 430.175C116.933 430.175 118.345 430.175 119.999 430.175C121.653 430.175 123.238 430.003 124.754 429.658C126.27 429.245 127.545 428.625 128.579 427.798C129.613 426.971 130.129 425.799 130.129 424.283C130.129 422.491 129.854 420.458 129.302 418.184C128.82 415.841 128.028 413.636 126.925 411.569C125.891 409.432 124.547 407.641 122.894 406.193C121.309 404.677 119.413 403.919 117.208 403.919C115.761 403.919 114.383 404.298 113.073 405.056C111.764 405.814 110.593 406.779 109.559 407.951C108.594 409.122 107.802 410.432 107.181 411.879C106.561 413.326 106.251 414.773 106.251 416.22Z" fill="#888888"/>
<path d="M63.7705 425.11C63.7705 421.182 64.8387 418.322 66.975 416.53C69.1802 414.739 72.04 413.843 75.5546 413.843C76.9329 413.843 78.2077 413.877 79.3793 413.946C80.6197 414.015 81.7912 414.187 82.8938 414.463C83.9964 414.739 85.0646 415.152 86.0983 415.703C87.2009 416.255 88.3379 417.047 89.5094 418.081C89.5094 417.874 89.5094 417.461 89.5094 416.84C89.5784 416.151 89.6128 415.428 89.6128 414.67C89.6128 413.912 89.6128 413.223 89.6128 412.602C89.6128 411.913 89.6128 411.431 89.6128 411.155C89.5439 409.915 89.5094 408.33 89.5094 406.4C89.5094 404.402 89.3372 402.369 88.9926 400.301C88.7169 398.234 88.0967 396.27 87.132 394.409C86.2361 392.549 84.7545 391.136 82.6871 390.171C81.2399 390.171 79.8961 390.412 78.6557 390.895C77.4152 391.377 76.1748 391.894 74.9344 392.445C73.6939 392.997 72.4535 393.514 71.2131 393.996C69.9727 394.409 68.6289 394.616 67.1817 394.616C67.1817 392.893 67.6985 391.481 68.7322 390.378C69.8348 389.206 71.1442 388.311 72.6603 387.69C74.1763 387.07 75.7613 386.657 77.4152 386.45C79.0692 386.243 80.5163 386.14 81.7568 386.14C82.9972 386.347 84.1342 386.588 85.1679 386.863C86.2705 387.139 87.2698 387.69 88.1656 388.517C89.1304 389.344 89.9918 390.619 90.7499 392.342C91.5768 393.996 92.266 396.339 92.8173 399.371C93.4375 402.403 93.9543 406.262 94.3678 410.948C94.8502 415.566 95.2292 421.251 95.5049 428.004C95.6427 428.9 95.3326 429.693 94.5745 430.382C93.8854 431.002 92.9206 431.553 91.6802 432.036C90.4398 432.449 89.0271 432.828 87.4421 433.173C85.926 433.448 84.3754 433.655 82.7904 433.793C81.2054 433.931 79.6894 434.034 78.2422 434.103C76.795 434.172 75.5891 434.207 74.6243 434.207C73.3838 434.207 72.109 434 70.7996 433.586C69.5592 433.173 68.3877 432.587 67.2851 431.829C66.2514 431.002 65.39 430.037 64.7008 428.935C64.0806 427.763 63.7705 426.488 63.7705 425.11ZM77.2085 417.874C73.7629 418.839 71.3509 420.01 69.9727 421.389C68.5944 422.698 67.9742 423.973 68.112 425.213C68.3188 426.454 69.1457 427.591 70.5929 428.625C72.04 429.589 73.7973 430.244 75.8647 430.589C77.9321 430.864 80.1718 430.692 82.5837 430.072C84.9957 429.383 87.3042 428.073 89.5094 426.144C88.6825 424.145 87.8555 422.629 87.0286 421.595C86.2016 420.493 85.3058 419.666 84.341 419.115C83.3762 418.563 82.3081 418.219 81.1365 418.081C79.965 417.943 78.6557 417.874 77.2085 417.874Z" fill="#888888"/>
<path d="M21.7034 415.083C21.7034 413.498 21.8412 411.672 22.1168 409.605C22.3925 407.468 22.8404 405.332 23.4606 403.196C24.0809 401.06 24.8389 398.958 25.7348 396.89C26.6995 394.823 27.8366 392.997 29.146 391.412C30.4553 389.758 31.9714 388.448 33.6942 387.484C35.417 386.45 37.3466 385.933 39.4829 385.933C41.6881 385.933 43.721 386.691 45.5817 388.207C47.5112 389.723 49.1307 391.687 50.44 394.099C51.8183 396.511 52.852 399.199 53.5411 402.162C54.2302 405.125 54.5059 408.02 54.368 410.845C54.368 414.98 53.5755 418.667 51.9905 421.906C50.4056 425.145 48.3726 427.763 45.8918 429.762C43.4798 431.76 40.8611 433.104 38.0357 433.793C35.2792 434.482 32.6605 434.31 30.1796 433.276C27.7677 432.174 25.7348 430.141 24.0809 427.177C22.4959 424.214 21.7034 420.183 21.7034 415.083ZM25.528 415.497C25.7348 419.7 26.4584 422.939 27.6988 425.213C28.9392 427.488 30.4208 429.004 32.1437 429.762C33.9354 430.451 35.865 430.451 37.9323 429.762C39.9997 429.073 41.9293 427.867 43.721 426.144C45.5127 424.352 47.0288 422.147 48.2693 419.528C49.5786 416.841 50.3022 413.843 50.44 410.535C50.5778 408.054 50.3711 405.642 49.8198 403.299C49.3374 400.956 48.6138 398.889 47.649 397.097C46.7532 395.236 45.6161 393.789 44.2379 392.756C42.9285 391.653 41.4124 391.102 39.6896 391.102C38.0357 391.102 36.5541 391.515 35.2447 392.342C33.9354 393.169 32.7294 394.306 31.6268 395.753C30.5931 397.131 29.6973 398.716 28.9392 400.508C28.1812 402.3 27.5265 404.092 26.9752 405.883C26.4928 407.675 26.1138 409.432 25.8381 411.155C25.6314 412.809 25.528 414.256 25.528 415.497Z" fill="#888888"/>
<path d="M4.54827 353.682C5.51305 353.82 6.34 354.095 7.02913 354.509C7.78717 354.853 8.37293 355.508 8.7864 356.473C8.7864 357.782 8.82086 359.608 8.88977 361.951C9.0276 364.226 9.13097 366.879 9.19988 369.911C9.33771 372.943 9.47553 376.216 9.61336 379.731C9.75118 383.246 9.88901 386.795 10.0268 390.378C10.1647 393.961 10.268 397.51 10.3369 401.025C10.4748 404.54 10.5781 407.813 10.6471 410.845C10.7849 413.877 10.8882 416.565 10.9572 418.908C11.0261 421.251 11.095 423.043 11.1639 424.283C11.1639 424.421 11.1294 424.662 11.0605 425.007C11.0605 425.351 11.0261 425.765 10.9572 426.247C10.9572 426.73 10.9227 427.212 10.8538 427.694C10.8538 428.108 10.8538 428.418 10.8538 428.625C10.7849 429.038 10.7504 429.555 10.7504 430.175C10.7504 430.726 10.6815 431.278 10.5437 431.829C10.4059 432.38 10.1647 432.897 9.8201 433.38C9.54445 433.793 9.06206 434.034 8.37293 434.103L6.61565 431.932C6.54674 431.864 6.44337 430.589 6.30554 428.108C6.23663 425.558 6.0988 422.285 5.89207 418.288C5.75424 414.222 5.61642 409.674 5.47859 404.643C5.34076 399.543 5.16848 394.409 4.96174 389.241C4.82392 384.072 4.68609 379.111 4.54827 374.356C4.41044 369.601 4.30707 365.5 4.23816 362.055C4.23816 361.779 4.23816 361.228 4.23816 360.401C4.30707 359.574 4.34153 358.747 4.34153 357.92C4.41044 357.024 4.4449 356.197 4.4449 355.439C4.51381 354.612 4.54827 354.027 4.54827 353.682Z" fill="#888888"/>
</svg>
